<?xml version="1.0" encoding="utf-8"?>
<!-- Generator: Adobe Illustrator 19.0.0, SVG Export Plug-In . SVG Version: 6.00 Build 0)  -->
<svg version="1.1" xmlns="http://www.w3.org/2000/svg" xmlns:xlink="http://www.w3.org/1999/xlink" x="0px" y="0px"
	 viewBox="0 0 3840 2160" style="enable-background:new 0 0 3840 2160;" xml:space="preserve">
<style type="text/css">
	.st0{opacity:0.19;fill:#6165D7;}
	.st1{opacity:0.5;clip-path:url(#SVGID_3_);}
	.st2{fill:#FFFFFF;}
	.st3{opacity:0.5;clip-path:url(#SVGID_6_);}
	.st4{opacity:0.5;clip-path:url(#SVGID_9_);}
	.st5{opacity:0.61;fill:url(#SVGID_10_);}
	.st6{opacity:0.61;fill:url(#SVGID_11_);}
	.st7{opacity:0.61;fill:url(#SVGID_12_);}
	.st8{opacity:0.61;fill:url(#SVGID_13_);}
	.st9{fill:#D8DEE8;}
	.st10{opacity:0.61;fill:url(#SVGID_14_);}
	.st11{fill:#97A6B7;}
	.st12{fill:url(#SVGID_15_);}
	.st13{opacity:0.3;fill:#D8DEE8;}
	.st14{opacity:0.6;fill:#FFFFFF;}
	.st15{fill:url(#SVGID_16_);}
	.st16{opacity:0.3;fill:url(#SVGID_17_);}
	.st17{fill:url(#SVGID_18_);}
	.st18{fill:url(#SVGID_19_);}
	.st19{opacity:0.3;fill:url(#SVGID_20_);}
	.st20{fill:url(#SVGID_21_);}
	.st21{fill:url(#SVGID_22_);}
	.st22{clip-path:url(#SVGID_24_);fill:url(#SVGID_25_);}
	.st23{opacity:0.3;clip-path:url(#SVGID_24_);fill:url(#SVGID_26_);}
	.st24{fill:url(#SVGID_27_);}
	.st25{fill:url(#SVGID_28_);}
	.st26{fill:url(#SVGID_29_);}
	.st27{fill:url(#SVGID_30_);}
	.st28{opacity:0.3;}
	.st29{fill:url(#SVGID_31_);}
	.st30{fill:url(#SVGID_32_);}
	.st31{fill:url(#SVGID_33_);}
	.st32{fill:url(#SVGID_34_);}
	.st33{fill:url(#SVGID_35_);}
	.st34{fill:url(#SVGID_36_);}
	.st35{fill:url(#SVGID_37_);}
	.st36{fill:url(#SVGID_38_);}
	.st37{fill:url(#SVGID_39_);}
	.st38{fill:url(#SVGID_40_);}
	.st39{fill:url(#SVGID_41_);}
	.st40{fill:url(#SVGID_42_);}
	.st41{fill:url(#SVGID_43_);}
	.st42{fill:url(#SVGID_44_);}
	.st43{fill:url(#SVGID_45_);}
	.st44{opacity:0.3;fill:url(#SVGID_46_);}
	.st45{fill:url(#SVGID_47_);}
	.st46{fill:url(#SVGID_48_);}
	.st47{fill:url(#SVGID_49_);}
	.st48{fill:url(#SVGID_50_);}
	.st49{fill:url(#SVGID_51_);}
	.st50{opacity:0.3;fill:url(#SVGID_52_);}
	.st51{fill:url(#SVGID_53_);}
	.st52{fill:url(#SVGID_54_);}
	.st53{fill:url(#SVGID_55_);}
	.st54{fill:url(#SVGID_56_);}
	.st55{fill:url(#SVGID_57_);}
	.st56{fill:url(#SVGID_58_);}
	.st57{fill:url(#SVGID_59_);}
	.st58{fill:url(#SVGID_60_);}
	.st59{fill:url(#SVGID_61_);}
	.st60{fill:url(#SVGID_62_);}
	.st61{fill:url(#SVGID_63_);}
	.st62{fill:url(#SVGID_64_);}
	.st63{fill:url(#SVGID_65_);}
	.st64{fill:url(#SVGID_66_);}
	.st65{fill:url(#SVGID_67_);}
	.st66{fill:#26264F;}
	.st67{fill:url(#SVGID_68_);}
	.st68{fill:#9B305E;}
	.st69{fill:url(#SVGID_69_);}
	.st70{fill:url(#SVGID_70_);}
	.st71{opacity:0.3;fill:url(#SVGID_71_);}
	.st72{fill:url(#SVGID_72_);}
	.st73{fill:url(#SVGID_73_);}
	.st74{fill:url(#SVGID_74_);}
	.st75{opacity:0.3;fill:#F4F7FA;}
	.st76{fill:url(#SVGID_75_);}
	.st77{fill:url(#SVGID_76_);}
	.st78{opacity:0.3;fill:url(#SVGID_77_);}
	.st79{fill:url(#SVGID_78_);}
	.st80{fill:url(#SVGID_79_);}
	.st81{fill:url(#SVGID_80_);}
	.st82{fill:url(#SVGID_81_);}
	.st83{fill:url(#SVGID_82_);}
	.st84{fill:url(#SVGID_83_);}
	.st85{opacity:0.3;fill:url(#SVGID_84_);}
</style>
<g id="Background">
</g>
<g id="Layer_4">
</g>
<g id="Illustration">
	<g>
		<path class="st0" d="M1839.2,1433.1c-247,3.8-525,30.6-526.7,70.8c-1.1,26.2,121.5,42,119.9,68.8c-3.1,53.1-455.8,34.7-461.9,88.4
			c-6.8,60.3,547.6,247.6,1006.7,102.3c14.2-4.5,47.4-19,96.5-31.8c135.2-35.2,206.2-15.8,377.6-21.6c87.1-3,274.5-9.4,280.7-51
			c3.2-21.1-41.4-44.2-68.6-57.7C2315,1429.4,1910.4,1432,1839.2,1433.1z"/>
		<path class="st0" d="M1416.6,1639.5c-217.7,23.2-333.1,0.3-336.1,21.6c-4.1,28.7,203.7,78.5,220.4,82.4
			c186.3,44.1,492,82.6,516.1,9.9c11.5-34.5-43.2-85.6-84-110.1C1652.3,1595,1578.3,1622.3,1416.6,1639.5z"/>
		<path class="st0" d="M1776.3,1448.9c-138.3,0.5-319.4,22.5-320.4,53.1c-0.9,28.7,157,62.7,292.8,68.8
			c184.4,8.3,380-32.5,379.3-64.9C2127.5,1473.4,1929,1448.3,1776.3,1448.9z"/>
		<g>
			<g>
				<g>
					<defs>
						<path id="SVGID_1_" d="M1845.4,1388c39.6-37.2,92-97.6,115.6-183.1c31-112-14.4-168.7-9.3-358.3
							c3.2-119.9,6.7-203.6,67.2-248.4c47.4-35.1,124.1-42,170.7-9.5c38.7,27,61.1,84.5,67.9,125.5c5.6,33.4,1.1,57.7,20.4,75.3
							c19.7,18,41,7.8,59.4,21.1c37.4,27,15.7,116.6,12.2,131.1c-38.9,161-187.3,269.7-252.6,316.3
							C2042.9,1296.6,1959.4,1347.9,1845.4,1388z"/>
					</defs>
					<linearGradient id="SVGID_2_" gradientUnits="userSpaceOnUse" x1="1845.434" y1="977.8338" x2="2358.9045" y2="977.8338">
						<stop  offset="0" style="stop-color:#AA80F9"/>
						<stop  offset="0.9964" style="stop-color:#6165D7"/>
					</linearGradient>
					<use xlink:href="#SVGID_1_"  style="overflow:visible;fill:url(#SVGID_2_);"/>
					<clipPath id="SVGID_3_">
						<use xlink:href="#SVGID_1_"  style="overflow:visible;"/>
					</clipPath>
					<g class="st1">
						<path class="st2" d="M1799.9,1417.1l-0.7-1.9c68.9-26.2,128.2-57.4,176.2-92.8c70.9-52.2,115-112.1,131.1-178.1
							c12.6-51.6,8.2-105.1,2-179.1c-4.9-59-13.8-100.4-21.6-137c-10.2-47.6-18.2-85.3-12.6-139.9c5.7-55.4,23.9-110.5,54.3-163.7
							l1.8,1c-30.2,53-48.4,107.7-54,162.9c-5.6,54.2,2.4,91.7,12.6,139.2c7.8,36.6,16.6,78,21.6,137.2c3.1,36.6,5.7,68.3,6,97.6
							c0.4,32.1-2.2,58.2-8.1,82.1c-16.3,66.4-60.6,126.7-131.9,179.3C1928.4,1359.6,1869,1390.9,1799.9,1417.1z"/>
						<path class="st2" d="M2105.4,922.8l-1.1-0.5c-0.4-0.2-39.5-17.5-78.7-57.8c-23-23.7-41.5-50.5-55-79.8
							c-16.9-36.6-26-77.1-27-120.4l2.1,0c1,43,10,83.2,26.8,119.6c13.4,29.1,31.8,55.7,54.6,79.2c35.3,36.3,70.5,53.8,77,56.9
							c14.1-47.1,34.3-90.5,60-128.8c20.7-31,44.9-58.8,72.1-82.7c46.3-40.7,85.6-56.2,85.9-56.4l0.7,1.9
							c-0.4,0.2-39.4,15.5-85.4,56.1c-27,23.8-51.2,51.5-71.7,82.3c-25.7,38.5-45.9,82-60,129.4L2105.4,922.8z"/>
						<path class="st2" d="M2115,1082.8l-0.4-0.6c-0.4-0.6-39.2-57.2-89.3-106.3c-49.9-49-166.6-65.9-167.8-66.1l0.3-2
							c1.2,0.2,118.6,17.3,168.9,66.7c47.4,46.5,84.7,99.7,89.1,106c28.1-8.5,58.8-30.7,91.5-66.1c26.4-28.6,54-65.9,82.1-110.8
							c47.9-76.4,80.9-149.3,81.3-150l1.9,0.8c-0.3,0.7-33.5,73.7-81.4,150.2c-28.2,45-55.9,82.3-82.3,111.1
							c-33.2,36-64.5,58.5-93.1,66.9L2115,1082.8z"/>
						<path class="st2" d="M1997.2,1309.3l1-1.8c17.3-30,23.6-61.3,18.8-93.2c-3.8-25.5-14.7-51.4-32.4-76.9
							c-30.2-43.6-70.1-71.5-70.5-71.7l1.2-1.7c0.4,0.3,40.7,28.3,71,72.2c17.9,25.8,28.9,52,32.8,77.8c4.7,31.7-1.3,62.9-18.1,92.7
							c11-1.5,64.9-9.7,133.1-33.5c44.8-15.6,86.9-34.8,125.1-57c47.8-27.7,89.7-60.3,124.5-96.7l153-160.1l1.5,1.4l-153,160.1
							c-35,36.6-77,69.3-125,97.1c-38.4,22.2-80.6,41.5-125.5,57.1c-61.2,21.3-115.4,31.5-135.6,33.9L1997.2,1309.3z"/>
					</g>
				</g>
			</g>
			<g>
				<g>
					<defs>
						<path id="SVGID_4_" d="M1859,1378.7c77.1,37.8,180.7,74.9,295.7,77.6c29.3,0.7,210.6,5,225.7-71.2c5.3-26.9-14.5-41-8-77.1
							c7.7-42.7,40.4-50.1,79.4-89.2c23.3-23.3,91.4-91.5,64.1-160.5c-16.3-41.3-65.9-80.9-113.1-91.5
							c-69.3-15.4-119.9,34.9-204,121.5c-74.6,76.8-77.5,103-132.2,157.3C2025.9,1286,1961.3,1337.3,1859,1378.7z"/>
					</defs>
					<linearGradient id="SVGID_5_" gradientUnits="userSpaceOnUse" x1="2310.873" y1="921.7088" x2="2141.2961" y2="1376.8901">
						<stop  offset="3.597120e-003" style="stop-color:#E38DDD"/>
						<stop  offset="1" style="stop-color:#9571F6"/>
					</linearGradient>
					<use xlink:href="#SVGID_4_"  style="overflow:visible;fill:url(#SVGID_5_);"/>
					<clipPath id="SVGID_6_">
						<use xlink:href="#SVGID_4_"  style="overflow:visible;"/>
					</clipPath>
					<g class="st3">
						<path class="st2" d="M1860.4,1376.9c-33.8,0-67.3-3.5-100.2-10.6c-35-7.5-69.7-19-103.2-34.2c-49.3-22.3-96.5-52.6-140.1-90
							l1.3-1.6c43.5,37.3,90.5,67.5,139.6,89.7c33.4,15.1,68,26.6,102.8,34c60.2,12.9,122.3,14,184.8,3.2
							c57-9.9,114.8-29.8,171.9-59.1c125.7-64.6,220.8-159.9,278.4-228.5c39.9-47.5,66.2-108.8,77.9-182.2l2,0.3
							c-11.8,73.7-38.2,135.3-78.4,183.2c-57.7,68.7-153,164.2-279,229c-57.3,29.4-115.3,49.4-172.5,59.3
							C1917.2,1374.4,1888.7,1376.9,1860.4,1376.9z"/>
						<path class="st2" d="M2268.3,1208.9l-0.2-0.9c-0.1-0.4-8.7-37.8-6.4-87.4c2.2-45.8,14.4-111.8,60.5-165.8l1.6,1.3
							c-45.7,53.5-57.8,119-60,164.5c-2.1,45.1,4.9,79.9,6.2,85.9c216.4-27.6,273.7-150.9,286.1-188.1c0.4-1.1,0.5-1.5,0.6-1.7
							l1.8,0.9c-0.1,0.1-0.3,0.8-0.5,1.5c-12.5,37.5-70.4,162.1-288.8,189.6L2268.3,1208.9z"/>
						<path class="st2" d="M2320.7,1379c-25.1,0-51.1-3.6-77.4-10.8c-40.8-11.2-82.5-31.1-124-59.2l-0.5-0.3l0-0.6
							c0-0.3,0.3-29.5,9.4-73.6c8.4-40.7,26.3-102.8,63.8-167.7l72.4-125.4l1.8,1l-72.4,125.4c-37.3,64.6-55.2,126.6-63.6,167.1
							c-8.4,40.6-9.3,68.4-9.4,72.6c41.1,27.8,82.5,47.5,122.9,58.6c32.4,8.9,64.3,12.3,94.8,10.2c51.9-3.7,82.1-22.6,82.4-22.7
							l1.1,1.7c-0.3,0.2-30.9,19.3-83.2,23.1C2332.9,1378.8,2326.8,1379,2320.7,1379z"/>
					</g>
				</g>
			</g>
			<g>
				<g>
					<defs>
						<path id="SVGID_7_" d="M1884.9,1462.9c-1.7-14-10.6-96.6,45.3-153.2c46.8-47.4,113.6-50.8,129.1-51.6
							c62.3-3.2,80.5,24.1,117.3,7.3c43.8-19.9,42.2-69.3,78.3-74c24.9-3.2,52,16.8,61.9,39.3c17.4,39.5-14.1,95.8-54.8,120.9
							c-56,34.5-99.2-9.2-165.9,26.7c-38.8,20.8-35.9,41.9-76.4,64.8C1972.8,1469.8,1921.4,1468.4,1884.9,1462.9z"/>
					</defs>
					<linearGradient id="SVGID_8_" gradientUnits="userSpaceOnUse" x1="1883.3456" y1="1328.6132" x2="2321.7041" y2="1328.6132">
						<stop  offset="0" style="stop-color:#FF9085"/>
						<stop  offset="1" style="stop-color:#FB6FBB"/>
					</linearGradient>
					<use xlink:href="#SVGID_7_"  style="overflow:visible;fill:url(#SVGID_8_);"/>
					<clipPath id="SVGID_9_">
						<use xlink:href="#SVGID_7_"  style="overflow:visible;"/>
					</clipPath>
					<g class="st4">
						<path class="st2" d="M1867.8,1495.3l-0.9-0.5c18.2-29.2,38.4-57.7,60.1-84.7c43.4-53.9,65.1-81,93.4-94.1
							c36.8-17.1,67.6-9.2,97.4-1.5c26.7,6.9,51.9,13.3,80.4,2.5c45.1-17.1,77.4-71.3,95.9-161.3l1,0.2
							c-18.6,90.3-51.1,144.8-96.6,162c-28.8,10.9-54.1,4.4-81-2.5c-29.6-7.6-60.3-15.5-96.7,1.4c-28.1,13-49.8,40-93,93.8
							C1906.1,1437.7,1885.9,1466.2,1867.8,1495.3z"/>
						<path class="st2" d="M2242.9,1319.4c-0.2,0-0.4,0-0.6,0c-21.7-0.1-34.1-5.8-34.2-5.9l-0.2-0.1l-0.1-0.2
							c-23.6-45.5,0.7-116.9,0.9-117.6l1,0.3c-0.2,0.7-24.4,71.6-1.1,116.6c1.5,0.7,13.5,5.6,33.7,5.7c0.2,0,0.4,0,0.5,0
							c19.9,0,51.6-4.9,90.9-27.8l0.5,0.9C2294.8,1314.5,2262.9,1319.4,2242.9,1319.4z"/>
						<path class="st2" d="M2180.1,1400.9c-25.7-55.2-158.3-83.6-159.6-83.9l-0.5-0.1l0-0.5c2-20.5,24-37.3,63.6-48.6
							c29.8-8.5,59.4-11.1,59.7-11.1l0.1,1c-1.2,0.1-116.9,10.2-122.3,58.3c4.1,0.9,35.8,8,69.8,21c33.6,12.8,76.5,34.3,90,63.4
							L2180.1,1400.9z"/>
						<path class="st2" d="M2098.5,1430.7c-9.9-18.1-24.8-30.7-44.2-37.4c-15.6-5.4-34.1-7.1-55.1-5.1c-35.8,3.5-66.7,16.8-67,17
							l-0.6,0.2l-0.1-0.6c-9.8-39.5,2.7-78.8,15-104.9c13.2-28.2,29-47.4,29.1-47.6l0.8,0.7c-0.2,0.2-15.8,19.3-29,47.4
							c-12.1,25.8-24.5,64.6-15,103.6c4.4-1.8,33.4-13.6,66.7-16.8c21.1-2,39.8-0.3,55.6,5.2c19.7,6.9,34.8,19.6,44.8,37.9
							L2098.5,1430.7z"/>
					</g>
				</g>
			</g>
		</g>
		<path class="st0" d="M2433,1637.4c-311.9-7.9-370.2-11.8-371.3-3.2c-1.4,11.8,106.3,37.2,196.9,46.7c88.8,9.4,157.5,3.2,215.6-2.3
			c64.8-6.1,163.7-20.1,163.1-29.5C2636.9,1642,2579,1641.1,2433,1637.4z"/>
		<g>
			
				<linearGradient id="SVGID_10_" gradientUnits="userSpaceOnUse" x1="1542.8804" y1="411.1568" x2="1526.4011" y2="744.8655" gradientTransform="matrix(1 0 0 1 -165.3938 0)">
				<stop  offset="3.597120e-003" style="stop-color:#E38DDD"/>
				<stop  offset="1" style="stop-color:#9571F6"/>
			</linearGradient>
			<path class="st5" d="M1590.1,582.7l-433.8-27c-48-3-87.5,28.8-87.5,71.1s39.5,78.1,87.5,79.9l433.8,16.2
				c40.7,1.5,73.3-28.2,73.3-66.4C1663.5,618.2,1630.9,585.2,1590.1,582.7z"/>
			
				<linearGradient id="SVGID_11_" gradientUnits="userSpaceOnUse" x1="1072.8695" y1="879.5018" x2="1528.3566" y2="879.5018" gradientTransform="matrix(1 0 0 1 -165.3938 0)">
				<stop  offset="3.597120e-003" style="stop-color:#E38DDD"/>
				<stop  offset="1" style="stop-color:#9571F6"/>
			</linearGradient>
			<path class="st6" d="M1305.8,830.3l-332.4-15.9c-36.2-1.7-65.9,24.3-65.9,58.3c0,33.9,29.7,62.2,65.9,63.1l332.4,8.8
				c31.7,0.8,57.1-23.8,57.1-55C1363,858.4,1337.5,831.8,1305.8,830.3z"/>
			
				<linearGradient id="SVGID_12_" gradientUnits="userSpaceOnUse" x1="2060.7559" y1="724.8805" x2="1854.7635" y2="411.7722" gradientTransform="matrix(1 0 0 1 -165.3938 0)">
				<stop  offset="3.597120e-003" style="stop-color:#E38DDD"/>
				<stop  offset="1" style="stop-color:#9571F6"/>
			</linearGradient>
			<path class="st7" d="M1867,456.9l0.8,15.6c0.2,4.6-3.9,8.2-9.2,8l-9.7-0.3c-0.8,7.5-2.6,14.6-5.2,21.5l8.3,4.2
				c4.8,2.4,6.6,7.5,4.2,11.4l-8.4,13.3c-2.5,3.9-8.3,5.2-13.1,2.8l-7.9-3.9c-5.2,5.9-11.2,11.2-17.8,15.9l4.7,6.5
				c2.9,4,1.6,9.1-3,11.4l-15.7,7.7c-4.6,2.3-10.8,0.8-13.7-3.2l-4.6-6.2c-8.3,2.7-17.1,4.6-26.3,5.7l0.4,7.1c0.3,4.7-4,8.4-9.6,8.3
				l-19-0.2c-5.6-0.1-10.4-3.9-10.6-8.6l-0.4-7.2c-9.5-1.3-18.7-3.5-27.5-6.5l-4,6.2c-2.6,4.1-8.8,5.4-13.9,3l-17.4-8.3
				c-5.1-2.4-7.1-7.7-4.5-11.8l4.2-6.5c-7.6-5.1-14.6-10.8-20.9-17.1l-8.1,3.8c-4.9,2.3-11.4,0.8-14.6-3.4l-10.8-14.3
				c-3.2-4.2-1.7-9.5,3.2-11.8l8.6-4c-3.7-7.3-6.4-14.9-8.2-22.7l-10.7-0.3c-5.9-0.2-10.9-4.2-11.1-9l-0.9-16.4
				c-0.3-4.8,4.3-8.5,10.1-8.4l11.3,0.4c1.2-7.6,3.3-14.8,6.3-21.7l-10.4-5.2c-5.2-2.6-7.3-8-4.6-12l9.2-13.8
				c2.7-4,9.1-5.2,14.2-2.6l10.8,5.4c5.5-5.5,11.7-10.5,18.5-14.8l-6.7-9.1c-3.1-4.3-1.7-9.5,3.2-11.6l16.5-7.3
				c4.8-2.1,11.2-0.4,14.3,3.8l6.8,9.3c8-2.2,16.4-3.7,25.1-4.4l-0.6-10.4c-0.3-4.7,4.1-8.3,9.7-8l19.1,1c5.6,0.3,10.3,4.3,10.6,9
				l0.6,10.4c8.7,1.5,17.1,3.8,25.2,6.7l5.6-8.6c2.5-3.9,8.5-5,13.4-2.4l16.6,8.7c4.8,2.5,6.7,7.7,4.2,11.6l-5.4,8.3
				c6.9,4.8,13.3,10.1,19,15.9l9.5-4.4c4.6-2.1,10.6-0.5,13.5,3.6l9.9,13.9c2.9,4.1,1.6,9.1-2.9,11.2l-9,4.2
				c3.5,6.8,6.3,14,8.1,21.3l10.3,0.3C1862.2,448.5,1866.8,452.3,1867,456.9z M1800.4,464.2c-1.9-34.9-37-64.5-79-66.3
				c-42.6-1.7-75.9,25.9-73.8,61.7c2,35.8,38.5,65.4,81,66.2C1770.4,526.7,1802.3,499.1,1800.4,464.2z"/>
			
				<linearGradient id="SVGID_13_" gradientUnits="userSpaceOnUse" x1="2095.2078" y1="498.9984" x2="2692.2871" y2="498.9984" gradientTransform="matrix(1 0 0 1 -165.3938 0)">
				<stop  offset="3.597120e-003" style="stop-color:#E38DDD"/>
				<stop  offset="1" style="stop-color:#9571F6"/>
			</linearGradient>
			<path class="st8" d="M2453.3,446.9l-435.6-35.7c-48.2-4-87.9,27.1-87.9,69.4c0,42.3,39.7,78.9,87.9,81.6l435.6,24.9
				c40.9,2.3,73.6-26.8,73.6-65C2526.9,483.9,2494.2,450.2,2453.3,446.9z"/>
			<path class="st9" d="M2315.6,685.7l0.6,12.1c0.2,3.6-2.8,6.5-6.7,6.5l-7.1,0.1c-0.6,5.8-1.9,11.4-3.8,16.8l6,3
				c3.4,1.7,4.8,5.7,3,8.8l-6.1,10.6c-1.8,3.1-6,4.2-9.5,2.5l-5.7-2.9c-3.8,4.7-8.1,9-12.9,12.8l3.4,4.9c2.1,3.1,1.2,7-2.1,8.9
				l-11.3,6.3c-3.3,1.9-7.7,0.9-9.9-2.2l-3.3-4.7c-5.9,2.3-12.3,4-18.9,5.1l0.3,5.5c0.2,3.6-2.9,6.6-6.9,6.7l-13.6,0.3
				c-4,0.1-7.4-2.8-7.6-6.4l-0.3-5.5c-6.8-0.8-13.4-2.3-19.7-4.4l-2.9,4.9c-1.9,3.2-6.3,4.4-9.9,2.6l-12.3-6c-3.6-1.8-5.1-5.8-3.2-9
				l3-5.1c-5.4-3.7-10.4-8-14.8-12.7l-5.7,3.1c-3.5,1.9-8.1,0.9-10.3-2.3l-7.6-10.7c-2.2-3.2-1.2-7.2,2.3-9.1l6.1-3.3
				c-2.6-5.5-4.5-11.3-5.8-17.2l-7.5,0.1c-4.1,0-7.7-2.9-7.9-6.6l-0.7-12.5c-0.2-3.7,3-6.7,7.2-6.7l8,0c0.8-5.8,2.3-11.5,4.5-16.8
				l-7.3-3.7c-3.7-1.8-5.1-5.9-3.2-9.1l6.5-10.8c1.9-3.2,6.4-4.2,10.1-2.4l7.7,3.9c3.9-4.4,8.3-8.4,13.1-11.9l-4.7-6.8
				c-2.2-3.2-1.2-7.2,2.2-9l11.7-6.1c3.4-1.8,8-0.7,10.2,2.5l4.8,7c5.7-1.9,11.7-3.3,17.9-4.1l-0.4-8c-0.2-3.6,2.9-6.5,6.9-6.5
				l13.7,0.1c4,0,7.4,3,7.6,6.6l0.4,8c6.2,0.9,12.3,2.4,18.1,4.4l4-6.8c1.8-3.1,6.1-4.1,9.7-2.3l11.9,6.2c3.5,1.8,4.9,5.8,3.1,8.9
				l-3.9,6.6c5,3.5,9.6,7.5,13.7,11.8l6.9-3.7c3.3-1.8,7.7-0.7,9.8,2.4l7.2,10.5c2.1,3.1,1.1,7-2.1,8.8l-6.5,3.6
				c2.5,5.2,4.5,10.7,5.9,16.3l7.5,0C2312.1,679.3,2315.4,682.2,2315.6,685.7z M2267.4,693.3c-1.4-27-26.6-49-56.7-49
				c-30.4-0.1-54.1,22.1-52.6,49.6c1.4,27.5,27.4,49.4,57.7,49C2245.8,742.4,2268.8,720.2,2267.4,693.3z"/>
			
				<linearGradient id="SVGID_14_" gradientUnits="userSpaceOnUse" x1="2505.5493" y1="702.348" x2="2961.0366" y2="702.348" gradientTransform="matrix(1 0 0 1 -165.3938 0)">
				<stop  offset="3.597120e-003" style="stop-color:#E38DDD"/>
				<stop  offset="1" style="stop-color:#9571F6"/>
			</linearGradient>
			<path class="st10" d="M2738.5,653.2l-332.4-15.9c-36.2-1.7-65.9,24.3-65.9,58.3c0,33.9,29.7,62.2,65.9,63.1l332.4,8.8
				c31.7,0.8,57.1-23.8,57.1-55C2795.6,681.2,2770.2,654.7,2738.5,653.2z"/>
			<g>
				<path class="st9" d="M2694.1,1032.5l0.5,10.3c0.1,3-2.2,5.6-5.3,5.7l-5.6,0.2c-0.5,5-1.5,9.8-3,14.4l4.8,2.4
					c2.7,1.4,3.8,4.7,2.4,7.4l-4.8,9.2c-1.4,2.7-4.8,3.8-7.6,2.4l-4.6-2.3c-3,4.1-6.4,7.9-10.2,11.2l2.7,4.1c1.7,2.6,0.9,6-1.7,7.6
					l-9,5.7c-2.6,1.7-6.2,0.9-7.8-1.6l-2.6-3.9c-4.7,2.1-9.7,3.7-15,4.8l0.2,4.7c0.1,3.1-2.3,5.7-5.5,5.9l-10.8,0.6
					c-3.2,0.2-5.9-2.2-6-5.2l-0.2-4.7c-5.4-0.5-10.6-1.6-15.6-3.2l-2.3,4.2c-1.5,2.8-5,3.9-7.8,2.5l-9.8-4.8c-2.9-1.4-4-4.8-2.5-7.5
					l2.4-4.4c-4.3-3-8.2-6.5-11.7-10.4l-4.5,2.8c-2.7,1.7-6.4,0.9-8.2-1.7l-6-8.9c-1.8-2.6-1-6.1,1.8-7.8l4.8-2.9
					c-2-4.6-3.6-9.4-4.6-14.5l-5.9,0.2c-3.3,0.1-6.1-2.3-6.2-5.4l-0.5-10.6c-0.2-3.1,2.4-5.7,5.7-5.9l6.3-0.2
					c0.6-5,1.8-9.8,3.5-14.4l-5.8-2.9c-2.9-1.5-4-4.9-2.5-7.6l5.1-9.4c1.5-2.7,5.1-3.8,8-2.3l6.1,3.1c3.1-3.8,6.5-7.4,10.4-10.5
					l-3.8-5.7c-1.8-2.6-1-6.1,1.8-7.7l9.3-5.5c2.7-1.6,6.3-0.8,8.1,1.8l3.8,5.8c4.5-1.8,9.3-3.2,14.2-4l-0.3-6.8
					c-0.1-3.1,2.3-5.6,5.5-5.7l10.8-0.3c3.2-0.1,5.9,2.4,6,5.4l0.3,6.8c5,0.6,9.8,1.7,14.3,3.2l3.2-5.9c1.4-2.7,4.9-3.7,7.7-2.2
					l9.5,5c2.8,1.5,3.9,4.8,2.4,7.5l-3.1,5.8c4,2.9,7.6,6.1,10.9,9.7l5.5-3.4c2.6-1.6,6.1-0.8,7.8,1.8l5.7,8.8
					c1.7,2.6,0.9,6-1.7,7.6l-5.2,3.2c2,4.4,3.6,9,4.7,13.8l5.9-0.2C2691.3,1027.1,2693.9,1029.4,2694.1,1032.5z M2655.8,1040.2
					c-1.1-23-21.2-41-45-40.2c-24.1,0.8-42.8,20.3-41.7,43.6c1.1,23.3,21.7,41.3,45.7,40.2
					C2638.6,1082.6,2656.9,1063.1,2655.8,1040.2z"/>
				<path class="st9" d="M2440.4,815.8l-371.9-6.1c-40.7-0.7-74.1,27.9-74.1,63.9c0,36,33.4,64.9,74.1,64.7l371.9-1.8
					c35.3-0.2,63.7-27,63.7-60S2475.7,816.4,2440.4,815.8z"/>
			</g>
			<path class="st9" d="M1875,1040.8l0.6,11.2c0.2,3.3-2.8,6.1-6.7,6.4l-7,0.5c-0.6,5.4-1.9,10.7-3.7,15.8l6,2.5c3.4,1.4,4.8,5,3,8
				l-6.1,10.2c-1.8,3-6,4.3-9.5,2.9l-5.7-2.3c-3.7,4.6-8.1,8.8-12.9,12.6l3.4,4.4c2.1,2.7,1.2,6.5-2.1,8.4l-11.3,6.5
				c-3.3,1.9-7.7,1.3-9.8-1.5l-3.3-4.2c-5.9,2.4-12.2,4.4-18.8,5.7l0.3,5.1c0.2,3.3-2.9,6.3-6.9,6.6l-13.6,1c-4,0.3-7.4-2.2-7.6-5.5
				l-0.3-5.1c-6.7-0.4-13.3-1.4-19.6-2.9l-2.9,4.7c-1.9,3.1-6.3,4.4-9.9,3l-12.3-4.8c-3.6-1.4-5-5.1-3.2-8.1l3-4.9
				c-5.4-3.2-10.3-6.8-14.7-10.9l-5.7,3.2c-3.4,1.9-8,1.3-10.2-1.5l-7.6-9.5c-2.2-2.8-1.2-6.6,2.2-8.6l6-3.4
				c-2.6-4.9-4.5-10.2-5.8-15.6l-7.5,0.5c-4.1,0.3-7.6-2.3-7.8-5.7l-0.7-11.6c-0.2-3.4,3-6.3,7.1-6.6l7.9-0.5
				c0.8-5.5,2.3-10.8,4.4-15.8l-7.3-3c-3.7-1.5-5.1-5.2-3.2-8.2l6.4-10.4c1.9-3,6.4-4.3,10-2.8l7.6,3.1c3.9-4.3,8.2-8.2,13-11.8
				l-4.7-6c-2.2-2.8-1.2-6.6,2.2-8.5l11.7-6.3c3.4-1.9,8-1.1,10.1,1.7l4.8,6.2c5.7-2.1,11.6-3.8,17.8-4.9l-0.4-7.4
				c-0.2-3.4,2.9-6.2,6.9-6.4l13.6-0.7c4-0.2,7.4,2.4,7.5,5.7l0.4,7.4c6.2,0.5,12.2,1.5,18,3l4-6.5c1.8-3,6.1-4.2,9.6-2.7l11.9,5.1
				c3.5,1.5,4.9,5.1,3.1,8.1l-3.9,6.4c5,3,9.6,6.4,13.7,10.1l6.9-3.8c3.3-1.8,7.6-1.1,9.7,1.7l7.1,9.4c2.1,2.7,1.1,6.5-2.1,8.3
				l-6.5,3.7c2.5,4.7,4.5,9.6,5.9,14.8l7.5-0.4C1871.5,1035,1874.8,1037.5,1875,1040.8z M1826.9,1050.5c-1.4-25-26.6-43.9-56.5-42.2
				c-30.2,1.7-53.8,23.6-52.4,49c1.4,25.4,27.3,44.2,57.5,42.1C1805.4,1097.3,1828.3,1075.5,1826.9,1050.5z"/>
			<path class="st9" d="M2299.6,986.1l-334.1,4.5c-36.2,0.5-65.9,26.4-65.9,57.9c0,31.5,29.7,56,65.9,54.9l334.1-10.7
				c32-1,57.7-25.5,57.7-54.6C2357.3,1009,2331.6,985.7,2299.6,986.1z"/>
		</g>
		<g>
			<g>
				<path class="st11" d="M1939.8,1483.3c-17.1-5.7-29.8-20.1-33.4-37.9l-24.8-122.9l-212.5,7.5l-26.2,128.1
					c-3.7,17.9,11,35.9,27.9,42.5l88.9,34.8c16.5,6.5,34.3,9,52,7.5l187.9-16.1c5.5-0.5,9.9-4.8,10.5-10.3
					c0.6-5.5,4.5-11.8-0.7-13.5L1939.8,1483.3z"/>
				
					<linearGradient id="SVGID_15_" gradientUnits="userSpaceOnUse" x1="1996.2703" y1="1370.3398" x2="1996.2703" y2="1488.8229" gradientTransform="matrix(1 0 0 1 -165.3938 0)">
					<stop  offset="0.494" style="stop-color:#EBEFF2"/>
					<stop  offset="1" style="stop-color:#FFFFFF"/>
				</linearGradient>
				<path class="st12" d="M1941.9,1475.8c-17-5.6-29.8-19.9-33.4-37.5l-24.8-121.4l-207.3,7.5l-26.1,126.5c-3.7,17.7,6,35.5,22.9,42
					l88.8,34.3c16.5,6.4,34.3,8.9,51.9,7.4l187.7-15.9c5.5-0.5,9.9-4.7,10.5-10.2c0.6-5.5-2.7-10.6-7.9-12.3L1941.9,1475.8z"/>
			</g>
			<g>
				<g>
					<path class="st11" d="M1234.9,1404.1c-23,1.4-41.9-13.6-41.9-33.3v-712c0-19.8,18.9-35,41.9-34l31.2,21l1034.4,25.2
						c16.9,0.7,30.6,15,30.6,31.8v605.6c0,16.8-13.7,31.3-30.6,32.3L1234.9,1404.1z"/>
					<path class="st2" d="M1244.5,1404.1c-23,1.4-41.9-13.6-41.9-33.3v-712c0-19.8,18.9-35,41.9-34l1065.7,46.2
						c16.9,0.7,30.6,15,30.6,31.8v605.6c0,16.8-13.7,31.3-30.6,32.3L1244.5,1404.1z"/>
					<path class="st13" d="M2310.1,685.1l-1065.7-43.8c-12.3-0.5-22.3,7.6-22.3,18.2v553.8v156.4c0,10.5,10,18.5,22.3,17.8
						l1065.7-61.2c9.1-0.5,16.4-8.2,16.4-17.3v-138.4V702.1C2326.5,693.1,2319.2,685.5,2310.1,685.1z"/>
					<path class="st9" d="M1244.5,1327c-4.8,0.2-8.7-2.9-8.7-7V660c0-4.1,3.9-7.3,8.7-7.1l1065.7,42.2c3.5,0.1,6.4,3.1,6.4,6.6
						v565.9c0,3.5-2.9,6.5-6.4,6.7L1244.5,1327z"/>
				</g>
				<path class="st14" d="M2198.9,1296.5c-89.7-55.5-27-213.1-127.7-292.4c-101.5-79.9-244.3,18.1-315.4-64.6
					c-52.9-61.6,9-136-41.5-193.9c-79.3-90.8-282.2,34.1-375.5-55.4c-13.2-12.7-26.6-32-34.2-62.9l-60-2.6c-23-1-41.9,14.3-41.9,34
					v712c0,19.8,18.9,34.7,41.9,33.3l1065.7-63.5c16.9-1,30.6-15.5,30.6-32.3v-10.8C2270,1321.5,2226.7,1313.7,2198.9,1296.5z"/>
			</g>
		</g>
		<g>
			
				<linearGradient id="SVGID_16_" gradientUnits="userSpaceOnUse" x1="-1174.719" y1="1223.5432" x2="-1369.5941" y2="1453.3688" gradientTransform="matrix(1 0 0 1 2416.0286 0)">
				<stop  offset="0" style="stop-color:#311944"/>
				<stop  offset="1" style="stop-color:#893976"/>
			</linearGradient>
			<path class="st15" d="M1209.6,1573.9c-25.2-1.6-48.9-17.6-59.2-42.1l-144.2-346.3c-13.1-31.5,1.7-67.2,33.2-79.9
				c31.8-12.7,81.3,2.3,94.8,34.1l147.9,350c13.9,33-1.8,69.1-34.9,80.4C1239.1,1573.1,1217.9,1574.4,1209.6,1573.9z"/>
			
				<linearGradient id="SVGID_17_" gradientUnits="userSpaceOnUse" x1="-1198.7236" y1="1203.189" x2="-1393.5981" y2="1433.0137" gradientTransform="matrix(1 0 0 1 2416.0286 0)">
				<stop  offset="0" style="stop-color:#311944"/>
				<stop  offset="1" style="stop-color:#893976"/>
			</linearGradient>
			<path class="st16" d="M1039.5,1105.6c31.8-12.7,81.3,2.3,94.8,34.1l135.2,320.1c-22.6-5.8-49.4-5.3-75.1-27.8
				c-42.8-37.5-21.8-85.6-55.7-128.5c-15.5-19.6-44.2-40.2-102.6-46.4l-29.8-71.6C993.1,1154,1007.9,1118.3,1039.5,1105.6z"/>
			
				<linearGradient id="SVGID_18_" gradientUnits="userSpaceOnUse" x1="976.0962" y1="1060.3772" x2="818.7957" y2="1245.8892" gradientTransform="matrix(-1 0 0 1 1890.2852 0)">
				<stop  offset="0" style="stop-color:#311944"/>
				<stop  offset="1" style="stop-color:#893976"/>
			</linearGradient>
			<path class="st17" d="M952.7,1036.9c1.2,0,2.5,0.1,3.7,0.3l89.1-1v231.7l-86.1-1.2c-2.2,0.6-4.5,0.9-6.8,0.9
				c-30.5,0-55.3-51.6-55.3-115.3C897.4,1088.6,922.1,1036.9,952.7,1036.9z"/>
			
				<linearGradient id="SVGID_19_" gradientUnits="userSpaceOnUse" x1="-1084.7366" y1="801.8293" x2="-904.8937" y2="1796.5814" gradientTransform="matrix(1 0 0 1 2416.0286 0)">
				<stop  offset="0" style="stop-color:#AA80F9"/>
				<stop  offset="0.9964" style="stop-color:#6165D7"/>
			</linearGradient>
			<path class="st18" d="M1045.5,1036.2c-33.8,77.2-33.8,154,0,231.7l662.9,213.1l6.8-650.4L1045.5,1036.2z"/>
			
				<linearGradient id="SVGID_20_" gradientUnits="userSpaceOnUse" x1="-1146.272" y1="803.6486" x2="-964.19" y2="1810.7858" gradientTransform="matrix(1 0 0 1 2416.0286 0)">
				<stop  offset="0" style="stop-color:#AA80F9"/>
				<stop  offset="0.9964" style="stop-color:#6165D7"/>
			</linearGradient>
			<path class="st19" d="M1529.4,1289.9c-63-23.9-82.6-115.3-155.8-118.4c-57.4-2.4-74.7,53.3-131,47.3
				c-57.6-6.2-67.3-68.2-131.8-90.1c-29.3-9.9-60-8.1-89.8,0.3c-4,46.1,4.1,92.3,24.3,138.9l662.9,213.1l-39.2-220.8
				C1603.8,1298.4,1560,1301.5,1529.4,1289.9z"/>
			
				<linearGradient id="SVGID_21_" gradientUnits="userSpaceOnUse" x1="328.8659" y1="942.0719" x2="-29.379" y2="1364.5671" gradientTransform="matrix(-1 0 0 1 1890.2852 0)">
				<stop  offset="3.597120e-003" style="stop-color:#E38DDD"/>
				<stop  offset="1" style="stop-color:#9571F6"/>
			</linearGradient>
			<ellipse class="st20" cx="1740.5" cy="1153.3" rx="161.3" ry="336.3"/>
			
				<linearGradient id="SVGID_22_" gradientUnits="userSpaceOnUse" x1="353.956" y1="1148.1169" x2="8.6025" y2="1156.9154" gradientTransform="matrix(-1 0 0 1 1890.2852 0)">
				<stop  offset="0" style="stop-color:#311944"/>
				<stop  offset="1" style="stop-color:#893976"/>
			</linearGradient>
			<path class="st21" d="M1740.5,1478.2c18.9,0,37.5-7.9,55.2-23.6c18-15.9,34.4-39,48.5-68.4c29.7-62,46.1-144.7,46.1-232.9
				c0-88.2-16.4-170.9-46.1-232.9c-14.1-29.5-30.5-52.5-48.5-68.4c-17.7-15.6-36.3-23.6-55.2-23.6c-18.9,0-37.5,7.9-55.2,23.6
				c-18,15.9-34.4,39-48.5,68.4c-12.4,25.9-22.5,55.5-30.1,87.5c-10.5,44.6,19.8,91.2,19.8,142.5c0,54.5-29.6,109.9-17.8,156.7
				c7.3,28.8,16.7,55.5,28,79.1c14.1,29.5,30.5,52.5,48.5,68.4C1703.1,1470.3,1721.6,1478.2,1740.5,1478.2z"/>
			<g>
				<defs>
					<path id="SVGID_23_" d="M1740.5,1478.2c18.9,0,37.5-7.9,55.2-23.6c18-15.9,34.4-39,48.5-68.4c29.7-62,46.1-144.7,46.1-232.9
						c0-88.2-16.4-170.9-46.1-232.9c-14.1-29.5-30.5-52.5-48.5-68.4c-17.7-15.6-36.3-23.6-55.2-23.6c-18.9,0-37.5,7.9-55.2,23.6
						c-18,15.9-34.4,39-48.5,68.4c-29.7,62-46.1,144.7-46.1,232.9c0,88.2,16.4,170.9,46.1,232.9c14.1,29.5,30.5,52.5,48.5,68.4
						C1703.1,1470.3,1721.6,1478.2,1740.5,1478.2z"/>
				</defs>
				<clipPath id="SVGID_24_">
					<use xlink:href="#SVGID_23_"  style="overflow:visible;"/>
				</clipPath>
				
					<linearGradient id="SVGID_25_" gradientUnits="userSpaceOnUse" x1="-843.9841" y1="833.2567" x2="-726.5617" y2="1482.7473" gradientTransform="matrix(1 0 0 1 2416.0286 0)">
					<stop  offset="0" style="stop-color:#FFC444"/>
					<stop  offset="0.9964" style="stop-color:#F36F56"/>
				</linearGradient>
				<path class="st22" d="M1753.8,1157.7c0,85.2-56.4,152.9-125,151.1c-67.6-1.7-121.6-70.2-121.6-153c0-82.8,54-150.5,121.6-151.2
					C1697.4,1004,1753.8,1072.5,1753.8,1157.7z"/>
				
					<linearGradient id="SVGID_26_" gradientUnits="userSpaceOnUse" x1="-776.2741" y1="916.9266" x2="-689.6343" y2="1396.1511" gradientTransform="matrix(1 0 0 1 2416.0286 0)">
					<stop  offset="0" style="stop-color:#FFC444"/>
					<stop  offset="0.9964" style="stop-color:#F36F56"/>
				</linearGradient>
				<path class="st23" d="M1743,1156.3c0,63.3-27.5,113.5-60.9,112.2c-32.9-1.3-59.2-52.1-59.2-113.6c0-61.5,26.3-111.8,59.2-112.2
					C1715.5,1042.2,1743,1093.1,1743,1156.3z"/>
			</g>
		</g>
		<g>
			<g>
				
					<linearGradient id="SVGID_27_" gradientUnits="userSpaceOnUse" x1="-1992.271" y1="-322.4991" x2="-2951.9949" y2="2076.8118" gradientTransform="matrix(-1 0 0 1 -293.7148 0)">
					<stop  offset="0" style="stop-color:#311944"/>
					<stop  offset="1" style="stop-color:#893976"/>
				</linearGradient>
				<path class="st24" d="M1866.1,1048.5c0,0,45-28,71.3-71.7c-39.9-45.5-63.3-101.3-63.3-160.9c0-142.8,134.6-262.6,308-267.9
					c177.4-5.4,328.5,110.1,336.2,260.2c0,0.1,0,0.1,0,0.2c0.1,1.9,0.2,3.7,0.2,5.6c0,0.3,0,0.5,0,0.8c0,1.8,0.1,3.7,0.1,5.5
					c0,8.5-0.5,17-1.4,25.3c-0.4,3.6-0.9,7.1-1.4,10.6c-1.1,7-2.5,13.9-4.2,20.8c-0.9,3.4-1.8,6.8-2.8,10.2
					c-0.7,2.2-1.4,4.5-2.1,6.7c-17.4,52-52.7,97.1-99.8,130.7c-1,0.7-2,1.4-3,2.1c-16.2,11.3-33.8,21.2-52.4,29.7
					c-1.2,0.5-2.3,1-3.5,1.6c-8.2,3.6-16.6,6.9-25.3,9.9c-3.7,1.3-7.4,2.5-11.2,3.7c-2.5,0.8-5,1.5-7.6,2.3
					c-3.8,1.1-7.6,2.1-11.5,3.1c-2.6,0.7-5.2,1.3-7.8,1.9c-32.5,7.5-67,10.8-102.6,9.2c-2.6-0.1-5.2-0.3-7.9-0.4
					c-0.8,0-1.5-0.1-2.3-0.2c-1.9-0.1-3.7-0.3-5.6-0.4c-0.8-0.1-1.6-0.2-2.5-0.2c-1.8-0.2-3.6-0.3-5.4-0.5c-0.8-0.1-1.5-0.2-2.3-0.3
					c-1.9-0.2-3.7-0.4-5.6-0.7c-0.7-0.1-1.3-0.2-2-0.3c-2-0.3-4-0.5-5.9-0.8c-0.5-0.1-1-0.2-1.5-0.2c-2.2-0.3-4.3-0.7-6.5-1
					c-0.3,0-0.6-0.1-0.9-0.2c-2.4-0.4-4.8-0.9-7.2-1.3c0,0,0,0,0,0c-20.3-3.9-39.7-9.3-58.3-16.2c0,0,0,0,0.1-0.1
					c-10.9-4.1-21.5-8.6-31.8-13.6C2011.9,1071.1,1948.6,1106.8,1866.1,1048.5z"/>
				<g>
					
						<linearGradient id="SVGID_28_" gradientUnits="userSpaceOnUse" x1="-2586.4221" y1="595.9023" x2="-2145.5796" y2="1413.5347" gradientTransform="matrix(-1 0 0 1 -293.7148 0)">
						<stop  offset="0" style="stop-color:#FF9085"/>
						<stop  offset="1" style="stop-color:#FB6FBB"/>
					</linearGradient>
					<path class="st25" d="M1850.9,814.8c0,142.8,134.6,264.5,308,272.1c182.1,8,336.5-111.7,336.5-267.7
						c0-156-154.5-277.9-336.5-272.3C1985.5,552.2,1850.9,672,1850.9,814.8z"/>
					
						<linearGradient id="SVGID_29_" gradientUnits="userSpaceOnUse" x1="-2586.4221" y1="595.9023" x2="-2145.5796" y2="1413.5347" gradientTransform="matrix(-1 0 0 1 -293.7148 0)">
						<stop  offset="0" style="stop-color:#FF9085"/>
						<stop  offset="1" style="stop-color:#FB6FBB"/>
					</linearGradient>
					<path class="st26" d="M1850.9,814.8c0,142.8,134.6,264.5,308,272.1c182.1,8,336.5-111.7,336.5-267.7
						c0-156-154.5-277.9-336.5-272.3C1985.5,552.2,1850.9,672,1850.9,814.8z"/>
					
						<linearGradient id="SVGID_30_" gradientUnits="userSpaceOnUse" x1="-1749.7864" y1="352.0562" x2="-1337.0461" y2="1117.567" gradientTransform="matrix(-0.9879 -0.1549 -0.1549 0.9879 586.5578 -9.6135)">
						<stop  offset="0" style="stop-color:#FF9085"/>
						<stop  offset="1" style="stop-color:#FB6FBB"/>
					</linearGradient>
					<path class="st27" d="M2024.8,1040.5c0,0-74.8,82.6-181.9,7c0,0,85.7-53.2,89.5-127.7L2024.8,1040.5z"/>
					<g>
						<path class="st2" d="M1982.3,744.8c13-37.2,45.6-63.9,84.1-64.3c50.8-0.6,92.5,44.6,92.5,101.1c0-56.4,42.2-102.7,95-103.3
							c41-0.5,76.3,26.6,90.7,65.4c55,140.2-185.6,263.1-185.6,263.1S1933.2,876.6,1982.3,744.8z"/>
					</g>
					<g class="st28">
						
							<linearGradient id="SVGID_31_" gradientUnits="userSpaceOnUse" x1="-2705.6667" y1="641.366" x2="-2270.3054" y2="1515.0313" gradientTransform="matrix(-1 0 0 1 -293.7148 0)">
							<stop  offset="0" style="stop-color:#FF9085"/>
							<stop  offset="1" style="stop-color:#FB6FBB"/>
						</linearGradient>
						<path class="st29" d="M2081.6,1015.5c38.2-78-0.4-152.6,51.3-203.3c53.3-52.2,123.8-3,201.1-46.2
							c30.3-16.9,64.4-49.6,89.9-117.1c44.7,46.7,71.5,105.8,71.5,170.3c0,156-154.5,275.7-336.5,267.7
							c-40.5-1.8-78.8-9.8-113.7-22.7C2062.4,1048.3,2073.8,1031.5,2081.6,1015.5z"/>
					</g>
				</g>
			</g>
			<g>
				
					<linearGradient id="SVGID_32_" gradientUnits="userSpaceOnUse" x1="2675.2632" y1="539.8911" x2="2840.8252" y2="579.0002" gradientTransform="matrix(1 0 0 1 -165.3938 0)">
					<stop  offset="0" style="stop-color:#AA80F9"/>
					<stop  offset="0.9964" style="stop-color:#6165D7"/>
				</linearGradient>
				<path class="st30" d="M2619.5,478.6c54.5,1.7,100.3,35,109.2,77.1c0,0.1,0,0.1,0,0.2c0.5,2.3,0.9,4.6,1.1,7c0,0.2,0,0.3,0.1,0.5
					c0.1,1.1,0.2,2.2,0.3,3.3c0,0.2,0,0.4,0,0.6c0.1,1.1,0.1,2.3,0.1,3.4c0,49-50,86.1-110.8,82.9c-1.6-0.1-3.2-0.2-4.8-0.3
					c-0.2,0-0.3,0-0.5,0c-1.5-0.1-3-0.3-4.5-0.5c-0.2,0-0.5-0.1-0.7-0.1c-1.4-0.2-2.9-0.4-4.3-0.6c-0.3,0-0.5-0.1-0.8-0.1
					c-1.4-0.2-2.8-0.5-4.2-0.8c-0.3-0.1-0.6-0.1-0.8-0.2c-1.4-0.3-2.7-0.6-4.1-0.9c-0.3-0.1-0.5-0.1-0.8-0.2c-1.3-0.3-2.7-0.7-4-1
					c-0.2-0.1-0.5-0.1-0.7-0.2c-1.2-0.3-2.4-0.7-3.6-1.1c-0.3-0.1-0.6-0.2-0.9-0.3c-1.2-0.4-2.4-0.8-3.6-1.2
					c-0.3-0.1-0.5-0.2-0.8-0.3c0,0,0,0,0,0c-40.4-14.6-68.9-47.4-68.9-84.1C2511.6,513.9,2559.6,476.7,2619.5,478.6z"/>
				<g>
					
						<linearGradient id="SVGID_33_" gradientUnits="userSpaceOnUse" x1="-2941.5723" y1="494.9398" x2="-2799.6345" y2="758.1921" gradientTransform="matrix(-1 0 0 1 -293.7148 0)">
						<stop  offset="0" style="stop-color:#AA80F9"/>
						<stop  offset="0.9964" style="stop-color:#6165D7"/>
					</linearGradient>
					<path class="st31" d="M2500.1,561.6c0,47.7,48,88.8,107.9,92c60.8,3.1,110.8-34,110.8-82.9c0-49-50-90.2-110.8-92.1
						C2548,476.7,2500.1,513.9,2500.1,561.6z"/>
					<path class="st2" d="M2608,508.8c21.7,0.7,39.3,19,39.3,40.9c0,14.1-16.5,46.3-28.2,67.1c-4.8,8.6-17.5,8-22.3-1.1
						c-11.5-21.8-27.8-55.1-27.8-69.1C2569.1,525,2586.5,508.1,2608,508.8z M2608,569.3c11.6,0.5,21.1-8.6,21.1-20.3
						c0-11.7-9.4-21.5-21.1-21.9c-11.6-0.4-20.9,8.7-20.9,20.3C2587,559,2596.4,568.8,2608,569.3z"/>
					<g class="st28">
						
							<linearGradient id="SVGID_34_" gradientUnits="userSpaceOnUse" x1="-2983.175" y1="512.333" x2="-2844.0833" y2="791.4568" gradientTransform="matrix(-1 0 0 1 -293.7148 0)">
							<stop  offset="0" style="stop-color:#AA80F9"/>
							<stop  offset="0.9964" style="stop-color:#6165D7"/>
						</linearGradient>
						<path class="st32" d="M2581.5,630c13.1-25.2-0.1-49.8,17.6-65.8c18.1-16.2,41.8,0.5,67.4-12.3c9.9-5,21-14.9,29.3-35.8
							c14.4,15.4,23,34.4,23,54.6c0,49-50,86.1-110.8,82.9c-13.8-0.7-27-3.4-39.1-7.8C2574.9,640.6,2578.8,635.2,2581.5,630z"/>
					</g>
				</g>
			</g>
			<g>
				
					<linearGradient id="SVGID_35_" gradientUnits="userSpaceOnUse" x1="2767.9839" y1="817.3975" x2="2876.9495" y2="942.1026" gradientTransform="matrix(1 0 0 1 -165.3938 0)">
					<stop  offset="0" style="stop-color:#FFC444"/>
					<stop  offset="0.9964" style="stop-color:#F36F56"/>
				</linearGradient>
				<path class="st33" d="M2874.1,929.9c0,0.5,0.1,1.1,0.1,1.6c0,0.4,0.1,0.9,0.1,1.3c0,0.6,0.1,1.3,0.1,1.9c0,0.4,0,0.7,0,1.1
					c0,1,0,2,0,3c0,4.4-0.3,8.8-0.9,13.1c-1,7.5-2.8,14.9-5.5,22c-0.4,1-0.8,2-1.2,3c-1.6,4-3.5,8-5.6,11.8
					c-4.7,8.7-10.7,16.9-17.6,24.5c-1.5,1.7-3.1,3.4-4.8,5c-1.6,1.6-3.3,3.2-5.1,4.8c-6.9,6.3-14.6,12.1-23,17.3
					c-1,0.6-2.1,1.3-3.2,1.9c-2.1,1.3-4.3,2.5-6.5,3.7c-7.7,4.1-15.8,7.8-24.3,10.9c-2.4,0.9-4.9,1.7-7.4,2.5
					c-2.5,0.8-5,1.6-7.6,2.3c-2.5,0.7-5.1,1.4-7.7,2c-14.3,3.4-29.4,5.3-44.9,5.5c-1.3,0-2.7,0-4,0c-0.4,0-0.8,0-1.3,0
					c-0.9,0-1.8,0-2.7,0c-0.5,0-1,0-1.4,0c-0.8,0-1.7-0.1-2.5-0.1c-0.5,0-1,0-1.5-0.1c-0.8,0-1.6-0.1-2.5-0.1c-0.5,0-1-0.1-1.4-0.1
					c-0.8-0.1-1.7-0.1-2.5-0.2c-0.4,0-0.9-0.1-1.3-0.1c-0.9-0.1-1.7-0.2-2.6-0.2c-0.4,0-0.8-0.1-1.2-0.1c-0.9-0.1-1.8-0.2-2.8-0.3
					c-0.3,0-0.7-0.1-1-0.1c-1-0.1-2-0.3-3-0.4c-0.2,0-0.5-0.1-0.7-0.1c-1.2-0.2-2.3-0.3-3.5-0.5c-0.1,0-0.1,0-0.2,0
					c-7.4-1.2-14.6-2.8-21.5-4.8c0,0,0,0,0,0c-59.3-17-100.8-61-100.8-113.2c0-67.9,70.1-126.1,158.4-130.1
					c85.3-3.9,156.6,43.9,164.4,108.8c0.1,0.4,0.1,0.8,0.1,1.3C2874.1,928.9,2874.1,929.4,2874.1,929.9z"/>
				<g>
					
						<linearGradient id="SVGID_36_" gradientUnits="userSpaceOnUse" x1="-3050.0469" y1="836.9467" x2="-2837.3452" y2="1231.4453" gradientTransform="matrix(-1 0 0 1 -293.7148 0)">
						<stop  offset="0" style="stop-color:#FFC444"/>
						<stop  offset="0.9964" style="stop-color:#F36F56"/>
					</linearGradient>
					<path class="st34" d="M2540.5,948.5c0,67.9,68.6,121.9,155,120.7c88.4-1.2,161.5-59.6,161.5-130.3s-73.1-124.7-161.5-120.5
						C2609.1,822.4,2540.5,880.6,2540.5,948.5z"/>
					<path class="st2" d="M2649.4,877.7v120.1c0,7.7,6.5,12.5,12.2,9l100.6-63.1c6.3-3.9,6.3-15.1,0-18.6l-100.6-57
						C2656,864.8,2649.4,870,2649.4,877.7z"/>
					<g class="st28">
						
							<linearGradient id="SVGID_37_" gradientUnits="userSpaceOnUse" x1="-3109.2979" y1="857.8531" x2="-2899.5627" y2="1278.7412" gradientTransform="matrix(-1 0 0 1 -293.7148 0)">
							<stop  offset="0" style="stop-color:#FFC444"/>
							<stop  offset="0.9964" style="stop-color:#F36F56"/>
						</linearGradient>
						<path class="st35" d="M2657.3,1037.9c18.9-37.3-0.2-71.3,25.4-95.9c26.2-25.2,60.5-3.6,97.8-24.8
							c14.5-8.2,30.7-23.7,42.8-54.8c21.1,20.7,33.7,47.1,33.7,76.3c0,70.7-73.1,129.1-161.5,130.3c-20,0.3-39-2.4-56.4-7.5
							C2647.7,1053.8,2653.4,1045.6,2657.3,1037.9z"/>
					</g>
				</g>
			</g>
			<g>
				
					<linearGradient id="SVGID_38_" gradientUnits="userSpaceOnUse" x1="2456.822" y1="1084.845" x2="2638.6616" y2="1094.5864" gradientTransform="matrix(1 0 0 1 -165.3938 0)">
					<stop  offset="0" style="stop-color:#AA80F9"/>
					<stop  offset="0.9964" style="stop-color:#6165D7"/>
				</linearGradient>
				<path class="st36" d="M2373.7,1183.4c-0.4,0-0.7-0.1-1.1-0.1c-0.6,0-1.3-0.1-1.9-0.2c-0.4,0-0.7-0.1-1.1-0.1
					c-0.6-0.1-1.3-0.1-1.9-0.2c-0.3,0-0.7-0.1-1-0.1c-0.7-0.1-1.3-0.2-2-0.2c-0.3,0-0.6-0.1-0.9-0.1c-0.7-0.1-1.4-0.2-2.1-0.3
					c-0.3,0-0.5-0.1-0.8-0.1c-0.8-0.1-1.5-0.2-2.2-0.4c-0.2,0-0.4-0.1-0.6-0.1c-0.8-0.1-1.7-0.3-2.5-0.4c-0.1,0-0.2,0-0.3-0.1
					c-6.6-1.2-13.1-2.9-19.2-4.9l0,0c-44.8-14.7-76-49-76-87.8c0-50.6,52.8-92,119.7-92.5c65-0.5,119.7,37.7,125.5,86.8
					c0,0.3,0.1,0.5,0.1,0.8c0,0.4,0.1,0.8,0.1,1.2c0,0.4,0.1,0.8,0.1,1.1c0,0.3,0.1,0.7,0.1,1c0,0.5,0.1,1,0.1,1.4
					c0,0.3,0,0.5,0,0.8c0,0.8,0,1.5,0,2.3c0,25.8-13.4,48.8-35.1,65.4c-1.4,1.1-2.8,2.1-4.3,3.1c-1.5,1-3,2-4.5,3
					c-0.8,0.5-1.5,1-2.3,1.4c-1.6,0.9-3.2,1.8-4.8,2.7c-1.6,0.9-3.3,1.7-5,2.5c-1.4,0.7-2.9,1.3-4.3,2c-8.2,3.6-17,6.5-26.2,8.6
					c-1.8,0.4-3.6,0.8-5.4,1.1c-10.9,2-22.4,2.9-34.2,2.6c-1,0-2-0.1-3-0.1c-0.3,0-0.6,0-0.9-0.1
					C2375.1,1183.5,2374.4,1183.4,2373.7,1183.4z"/>
				<g>
					
						<linearGradient id="SVGID_39_" gradientUnits="userSpaceOnUse" x1="-2710.5015" y1="1011.3654" x2="-2554.2617" y2="1301.1438" gradientTransform="matrix(-1 0 0 1 -293.7148 0)">
						<stop  offset="0" style="stop-color:#AA80F9"/>
						<stop  offset="0.9964" style="stop-color:#6165D7"/>
					</linearGradient>
					<path class="st37" d="M2253.8,1088.2c0,50.6,51.9,93.3,117.6,95.5c67.6,2.2,123.8-39.1,123.8-92.4c0-53.3-56.2-96-123.8-95.5
						C2305.7,996.2,2253.8,1037.6,2253.8,1088.2z"/>
					<g>
						<path class="st2" d="M2411.3,1154.6l-5.3-35.6l16.6,0.3V1101l-19.8-0.3l-3.3-22.2l17.4,0.2v-18.5l-20.2-0.1l-5.1-34.4l-18,0
							l5,34.3l-18.3-0.1l-5.2-34.1l-17.7,0l5.2,34l-15.8-0.1v18.1l18.6,0.2l3.2,21.9l-16.5-0.2v17.9l19.4,0.4l5,35.2l18,0.5l-5-35.3
							l18.3,0.3l5.1,35.5L2411.3,1154.6z M2366.4,1100.2l-3.2-22l18.3,0.2l3.2,22.1L2366.4,1100.2z"/>
					</g>
					<g class="st28">
						
							<linearGradient id="SVGID_40_" gradientUnits="userSpaceOnUse" x1="-2755.7024" y1="1028.5333" x2="-2601.8127" y2="1337.3529" gradientTransform="matrix(-1 0 0 1 -293.7148 0)">
							<stop  offset="3.597120e-003" style="stop-color:#E38DDD"/>
							<stop  offset="1" style="stop-color:#9571F6"/>
						</linearGradient>
						<path class="st38" d="M2342.2,1158.9c14.4-27.3-0.2-53.4,19.4-70.9c20-18,46.2-0.7,74.8-15.4c11.1-5.7,23.6-16.8,32.9-39.8
							c16.2,16.2,25.9,36.5,25.9,58.5c0,53.3-56.2,94.6-123.8,92.4c-15.2-0.5-29.7-3.2-42.9-7.6
							C2335,1170.4,2339.3,1164.5,2342.2,1158.9z"/>
					</g>
				</g>
			</g>
		</g>
		<g>
			
				<linearGradient id="SVGID_41_" gradientUnits="userSpaceOnUse" x1="2667.8594" y1="1207.8162" x2="2672.6812" y2="1235.9303" gradientTransform="matrix(1 0 0 1 -165.3938 0)">
				<stop  offset="0" style="stop-color:#FFC444"/>
				<stop  offset="0.9964" style="stop-color:#F36F56"/>
			</linearGradient>
			<path class="st39" d="M2494,1219c1.6-1.3,3.7-3.4,5-6.6c1.3-3.4,0.4-4.9,2-7c2.1-2.7,6.4-3.8,9.3-2.5c0.6,0.3,1.4,0.7,1.8,1.5
				c1.3,2.2-1.6,6-3.9,8c-1.7,1.5-2.5,1.4-4.3,2.7c-1.8,1.3-4.1,3.5-5.9,7.5L2494,1219z"/>
			
				<linearGradient id="SVGID_42_" gradientUnits="userSpaceOnUse" x1="-974.1625" y1="1926.6445" x2="-969.3405" y2="1954.76" gradientTransform="matrix(-0.9207 0.3902 0.3902 0.9207 929.7166 -200.1826)">
				<stop  offset="0" style="stop-color:#FFC444"/>
				<stop  offset="0.9964" style="stop-color:#F36F56"/>
			</linearGradient>
			<path class="st40" d="M2590.6,1200.5c-2-0.6-4.8-1.7-7.1-4.1c-2.5-2.6-2.3-4.3-4.6-5.6c-3-1.6-7.3-1-9.5,1.3
				c-0.5,0.5-1,1.1-1.1,2.1c-0.3,2.5,3.8,4.9,6.7,5.9c2.2,0.7,2.8,0.3,5,0.8c2.1,0.5,5.1,1.6,8.3,4.6L2590.6,1200.5z"/>
			
				<linearGradient id="SVGID_43_" gradientUnits="userSpaceOnUse" x1="-1417.9264" y1="1804.8163" x2="-1380.0537" y2="2025.6423" gradientTransform="matrix(-0.9612 0.2758 0.2758 0.9612 731.386 -111.5727)">
				<stop  offset="0" style="stop-color:#FF9085"/>
				<stop  offset="1" style="stop-color:#FB6FBB"/>
			</linearGradient>
			<path class="st41" d="M2581.3,1203.7c-1.3,6.1,5.3,11.5,10.1,16.9c9.6,10.7,19.6,29.8,15.9,46.2c-2,9-8.4,18.6-17.5,23.2
				c-9.8,4.9-15.6,0.4-25.8,6.3c-0.7,0.4-13.6,8.1-14,18.3c-0.5,12.7,18.2,26.2,34.2,27.2c29.2,1.9,64.4-36.9,62.7-75.5
				c-1.8-41.9-46.9-75.2-59.8-69.6C2585.1,1197.6,2582.1,1200.2,2581.3,1203.7z"/>
			
				<linearGradient id="SVGID_44_" gradientUnits="userSpaceOnUse" x1="-2784.6379" y1="1773.8174" x2="-2784.6379" y2="1669.9907" gradientTransform="matrix(-0.9994 3.520000e-002 3.520000e-002 0.9994 -273.3178 -13.014)">
				<stop  offset="0" style="stop-color:#FFC444"/>
				<stop  offset="0.9964" style="stop-color:#F36F56"/>
			</linearGradient>
			<polygon class="st42" points="2568.3,1638 2567.3,1648.6 2572.2,1647.7 2575.6,1637.8 			"/>
			
				<linearGradient id="SVGID_45_" gradientUnits="userSpaceOnUse" x1="-2794.3298" y1="1574.3339" x2="-2802.7803" y2="1764.467" gradientTransform="matrix(-0.9994 3.520000e-002 3.520000e-002 0.9994 -273.3178 -13.014)">
				<stop  offset="0" style="stop-color:#311944"/>
				<stop  offset="1" style="stop-color:#893976"/>
			</linearGradient>
			<path class="st43" d="M2598.5,1441.7c-0.5,18.9-2.9,35-5.7,48.2c-3,14.2-4.7,16.6-5.7,26.4c-2,21.3,4.8,24.4,6.1,48.5
				c1.4,26.6-5.7,47.8-8.5,55.9c-2.4,7.1-5,12.8-6.9,16.7c-2.4,2.1-6.2,1.3-10.1,0.5c-1.5-24.2-3.3-46.9-4.7-71.1
				c-4.7-36.3-9.4-72.7-14-109C2565.5,1452.4,2582,1447,2598.5,1441.7z"/>
			
				<linearGradient id="SVGID_46_" gradientUnits="userSpaceOnUse" x1="-2794.3298" y1="1574.3339" x2="-2802.7803" y2="1764.467" gradientTransform="matrix(-0.9994 3.520000e-002 3.520000e-002 0.9994 -273.3178 -13.014)">
				<stop  offset="0" style="stop-color:#311944"/>
				<stop  offset="1" style="stop-color:#893976"/>
			</linearGradient>
			<path class="st44" d="M2567.8,1637.9c-1.5-24.2-3.3-46.9-4.7-71.1c-4.7-36.3-9.4-72.7-14-109c16.5-5.4,33-10.8,49.5-16.2
				c0,1.2-0.1,2.5-0.1,3.7c-23.1,20.1-27.7,36-27.4,46.9c0.3,13.2,7.5,19.7,6.1,38.8c-1,13.6-5.1,16.1-5.1,28.4
				c0,15.9,6.8,24.8,10.1,33.9c3.2,8.9,4.3,21.4-1.8,39.2c-0.8,1.8-1.6,3.5-2.3,4.9C2575.5,1639.5,2571.7,1638.7,2567.8,1637.9z"/>
			
				<linearGradient id="SVGID_47_" gradientUnits="userSpaceOnUse" x1="-2776.0547" y1="1774.3533" x2="-2793.4253" y2="1717.0774" gradientTransform="matrix(-0.9994 3.520000e-002 3.520000e-002 0.9994 -273.3178 -13.014)">
				<stop  offset="0" style="stop-color:#FF9085"/>
				<stop  offset="1" style="stop-color:#FB6FBB"/>
			</linearGradient>
			<path class="st45" d="M2570.2,1652.3c2.3-2.9,4.5-2.7,4.9-4.7c0.3-1.5-0.7-3.4-2.1-4.1c-2-1-4.4,0.7-4.9,1c-3.7,2.5-2.6,6.3-6,8
				c-0.7,0.3-1.8,0.7-3,1.8c-0.5,0.5-1.7,1.7-1.4,2.5c0.4,0.9,2.6,0.8,4.7,0.8c2.5-0.1,3.8-0.1,5-0.9
				C2568.9,1655.6,2568.4,1654.5,2570.2,1652.3z"/>
			
				<linearGradient id="SVGID_48_" gradientUnits="userSpaceOnUse" x1="265.2351" y1="2419.1724" x2="265.2351" y2="2327.1506" gradientTransform="matrix(-0.6521 0.7581 0.7581 0.6521 922.9138 -206.6332)">
				<stop  offset="0" style="stop-color:#FFC444"/>
				<stop  offset="0.9964" style="stop-color:#F36F56"/>
			</linearGradient>
			<polygon class="st46" points="2565.2,1561.3 2574.5,1565 2577.2,1560.7 2569.9,1555.9 			"/>
			
				<linearGradient id="SVGID_49_" gradientUnits="userSpaceOnUse" x1="271.6327" y1="2422.6514" x2="254.2614" y2="2365.3726" gradientTransform="matrix(-0.6521 0.7581 0.7581 0.6521 922.9138 -206.6332)">
				<stop  offset="0" style="stop-color:#FF9085"/>
				<stop  offset="1" style="stop-color:#FB6FBB"/>
			</linearGradient>
			<path class="st47" d="M2579.4,1567.2c-0.5-3.7,1.1-5.1-0.1-6.8c-0.9-1.3-3-1.8-4.4-1.2c-2.1,0.8-2.5,3.7-2.6,4.3
				c-0.7,4.4,2.9,6.1,1.8,9.8c-0.2,0.7-0.7,1.8-0.7,3.4c0,0.7,0.1,2.4,0.9,2.7c0.9,0.4,2.4-1.3,3.7-2.9c1.6-1.9,2.5-2.9,2.7-4.3
				C2580.9,1570.4,2579.8,1570.1,2579.4,1567.2z"/>
			
				<linearGradient id="SVGID_50_" gradientUnits="userSpaceOnUse" x1="2810.854" y1="1499.7128" x2="2633.6326" y2="1491.6571" gradientTransform="matrix(1 0 0 1 -165.3938 0)">
				<stop  offset="0" style="stop-color:#311944"/>
				<stop  offset="1" style="stop-color:#893976"/>
			</linearGradient>
			<path class="st48" d="M2525.2,1424.9c-17.2,35.2-23.1,64.5-25.3,83.6c-1.4,12.3-1.3,19.9,2.3,27.6c12.7,27.4,57,29.2,63.7,29.4
				c2.2-4.5,4.4-9.1,6.6-13.6c-4.1-7.6-11.2-18.1-23.4-25.7c-9.4-5.9-13-4.6-15.4-8.6c-9.4-15.9,41.3-50.3,33.7-73.2
				C2564.8,1436.4,2554.8,1428.4,2525.2,1424.9z"/>
			
				<linearGradient id="SVGID_51_" gradientUnits="userSpaceOnUse" x1="2740.4375" y1="1221.1786" x2="2784.5081" y2="1478.1431" gradientTransform="matrix(1 0 0 1 -165.3938 0)">
				<stop  offset="0" style="stop-color:#FF9085"/>
				<stop  offset="1" style="stop-color:#FB6FBB"/>
			</linearGradient>
			<path class="st49" d="M2562.5,1298.5c-18.6,3.2-32.8,6.5-39.2,16.3c-6.7,10.3,3.9,18.1,6.8,40.7c4.4,34.6-15.5,47.6-9.8,82.4
				c0.9,5.7,2.4,10.8,3.9,15.1c2.7,7.6,7.9,14,14.7,18.3c5.1,3.2,11.3,6.5,18.6,9c18.9,6.6,28.2,2.8,53.6,4.2
				c41.6,2.4,47.8,14.4,66.6,7c19-7.5,32.7-27.7,28.7-36.4c-2.4-5.2-10-1.9-20.9-8.3c-14.1-8.2-11.7-19.4-23.1-29
				c-16.4-13.8-32.1,0.1-46.2-11.9c-14.2-12.1-15.9-41.6-9.8-59.2c3.9-11.5,4-23.9,6.9-35.7c0.2-1,0.4-2.5-0.2-4.3
				c-2.3-6.8-14.7-8.1-24.1-9C2575,1296.4,2564.1,1298.2,2562.5,1298.5z"/>
			
				<linearGradient id="SVGID_52_" gradientUnits="userSpaceOnUse" x1="5485.3564" y1="2150.751" x2="5571.1641" y2="2327.2002" gradientTransform="matrix(0.9781 -0.2085 0.2085 0.9781 -3308.1052 362.7076)">
				<stop  offset="0" style="stop-color:#FF9085"/>
				<stop  offset="1" style="stop-color:#FB6FBB"/>
			</linearGradient>
			<path class="st50" d="M2675.8,1478.4c-5.8-3.8-2.6-14.7-11.2-20.5c-7.9-5.4-14.1,1.6-25.7-1.9c-15-4.6-14.2-19-28.5-23.6
				c-10.3-3.3-13.4,3.3-28.3,3.6c-14.8,0.3-34.3-5.8-46.6-21.6c-5.2-6.7-8.2-13.8-9.8-20.4c-4,12.8-8.3,25.2-5.2,43.9
				c1.2,7.6,3.3,14,5.4,19.1c1.9,4.7,5.2,8.8,9.4,11.7c5.7,4,13.2,8.3,22.4,11.5c18.9,6.6,28.2,2.8,53.6,4.2
				c41.6,2.4,47.8,14.4,66.6,7c12.1-4.8,22.1-14.8,26.7-23.6C2688.2,1479.8,2679.9,1481.2,2675.8,1478.4z"/>
			
				<linearGradient id="SVGID_53_" gradientUnits="userSpaceOnUse" x1="-2773.7356" y1="1391.2955" x2="-2793.5525" y2="1423.3523" gradientTransform="matrix(-0.9994 3.520000e-002 3.520000e-002 0.9994 -273.3178 -13.014)">
				<stop  offset="0" style="stop-color:#FFC444"/>
				<stop  offset="0.9964" style="stop-color:#F36F56"/>
			</linearGradient>
			<path class="st51" d="M2551.8,1266.2c0,0-5.1,9.6-5.5,16.4c-0.3,6.8,7.3,6.3,7.3,6.3l-0.3,4.3c-0.2,3.6-2.6,6.8-6,8.1l-3,1.1
				c0,0,19.7,4.2,30.4-3.4l-3.1-0.3c-4.4-0.4-7.9-3.9-8.3-8.3l-0.2-1.8C2563.1,1288.6,2566.5,1267.5,2551.8,1266.2z"/>
			
				<linearGradient id="SVGID_54_" gradientUnits="userSpaceOnUse" x1="2666.3057" y1="1251.2434" x2="2704.1777" y2="1472.0662" gradientTransform="matrix(1 0 0 1 -165.3938 0)">
				<stop  offset="0" style="stop-color:#FF9085"/>
				<stop  offset="1" style="stop-color:#FB6FBB"/>
			</linearGradient>
			<path class="st52" d="M2503.4,1220.9c2.9,5.5-1.9,12.6-5,19c-6.2,12.9-10.6,34-2.5,48.8c4.4,8,13.2,15.6,23.2,17.5
				c10.8,2.1,15.1-3.9,26.5-1c0.8,0.2,15.3,4,18.5,13.8c3.9,12.1-10.3,30.2-25.3,35.6c-27.5,9.9-72.1-17.8-81.1-55.2
				c-9.9-40.8,24.3-85.2,38.3-83.4C2498.1,1216.1,2501.7,1217.8,2503.4,1220.9z"/>
			
				<linearGradient id="SVGID_55_" gradientUnits="userSpaceOnUse" x1="-2883.7983" y1="1525.5662" x2="-2803.6829" y2="1354.3792" gradientTransform="matrix(-0.9994 3.520000e-002 3.520000e-002 0.9994 -273.3178 -13.014)">
				<stop  offset="0" style="stop-color:#444B8C"/>
				<stop  offset="0.9964" style="stop-color:#26264F"/>
			</linearGradient>
			<path class="st53" d="M2554.9,1275.8c1-0.1,1.9-1.4,2.6-1c0.7,0.4,0.6,2.3,0,3.6c-0.5,1.1-1.4,1.7-1.8,2c0.8,1.1,1.8,2.8,2.2,5
				c0.9,4.9-1.7,8.8-2.8,11.1c-4.9,10.4,2.7,26.8,11,35c6.8,6.7,9.9,4,13.9,9.5c7.9,10.7-3,22.5,1.1,36.8
				c6.2,21.9,40.7,28.4,42.2,28.7c0.6,0.1,0.9,0.2,1.5,0.3c15.5,2.5,39,6.2,55.6-6.5c12.4-9.5,18.1-26.1,17.1-40.7
				c-0.2-3.8-1.4-18.4-13.3-30.3c-1.9-1.9-13-13-28.1-13.2c-8-0.1-9.6,2.7-15.7,1c-8.4-2.4-13.5-10-16.7-14.7
				c-5.9-8.7-3.5-10.5-7.7-14.8c-8.3-8.4-18-1.8-26.9-9.2c-8.7-7.3-3.5-17.1-11.9-23.4c-8.7-6.5-25.3-4.2-28.9,3.5
				C2545.2,1265.2,2551.7,1276.1,2554.9,1275.8z"/>
		</g>
		<g>
			
				<linearGradient id="SVGID_56_" gradientUnits="userSpaceOnUse" x1="-3659.2808" y1="1142.4725" x2="-3638.5754" y2="1190.1277" gradientTransform="matrix(-1 0 0 1 -1345.4875 0)">
				<stop  offset="0" style="stop-color:#FFC444"/>
				<stop  offset="0.9964" style="stop-color:#F36F56"/>
			</linearGradient>
			<path class="st54" d="M2297.3,1175.6c0,0,4.1-21.2,8.1-27.5c4.1-6.3,11.6-10.4,11.6-10.4s1.6,2.6-3.4,8.1c-5,5.5-0.8,6,0,7.8
				c0.8,1.8-1,8.1-4.6,10.3c-3.6,2.3-5,14.5-5,14.5L2297.3,1175.6z"/>
			
				<linearGradient id="SVGID_57_" gradientUnits="userSpaceOnUse" x1="-3606.3298" y1="1176.7084" x2="-3522.3362" y2="1370.0273" gradientTransform="matrix(-1 0 0 1 -1345.4875 0)">
				<stop  offset="3.597120e-003" style="stop-color:#E38DDD"/>
				<stop  offset="1" style="stop-color:#9571F6"/>
			</linearGradient>
			<path class="st55" d="M2309,1172.9c-4.4-0.8-8.7-1.5-13.1-2.3c-15.6,28.9-33.8,47.5-46.3,58.2c-14.7,12.7-24.2,21-39.8,25.1
				c-23,6.1-42.9-1.1-45.5,5.4c-1.3,3.2,3.1,6.6,10.1,15c20.4,24.4,18.5,37.6,29.7,41.2c9.3,3,18.6-3.5,34.5-14.8
				c14.4-10.3,32.5-23.2,47.7-47.7C2307,1220.1,2309,1187.7,2309,1172.9z"/>
			
				<linearGradient id="SVGID_58_" gradientUnits="userSpaceOnUse" x1="-871.2798" y1="1373.1056" x2="-843.3834" y2="1261.5197" gradientTransform="matrix(-1 0 0 1 1263.5919 0)">
				<stop  offset="3.597120e-003" style="stop-color:#E38DDD"/>
				<stop  offset="1" style="stop-color:#9571F6"/>
			</linearGradient>
			<path class="st56" d="M2117.1,1262c-2.1,0.8-34.4,13.6-41,47.3c-0.5,2.7-5.7,31.7,13.9,52.1c22,22.9,64.4,22.4,81.2,3.2
				c3.9-4.5,6-9.4,7.2-13.6l-4.4-11.8c-5.4-6.5-12.8-8.1-16.7-9c-9.7-2.4-17,1.9-22.6-2.7c-3.1-2.6-3.7-6.3-4.2-9.6
				c-1.9-11.3,4.5-18.3,5-25.3c0.3-5.2,2.2-16.7-4.6-24.1C2126.5,1263.7,2120.5,1262.4,2117.1,1262z"/>
			
				<linearGradient id="SVGID_59_" gradientUnits="userSpaceOnUse" x1="-1041.741" y1="1289.9521" x2="-1028.5079" y2="1301.723" gradientTransform="matrix(-0.9902 -0.14 -0.14 0.9902 1257.2977 208.4434)">
				<stop  offset="0" style="stop-color:#444B8C"/>
				<stop  offset="0.9964" style="stop-color:#26264F"/>
			</linearGradient>
			<path class="st57" d="M2104.5,1637.6c-0.4-2.1-7.1-4-10.4-1.2c-1.6,1.4-2.8,4.2-1.8,5.4c0.3,0.5-1.1,1.3,0.3,1.3
				C2097.1,1643.2,2104.9,1639.6,2104.5,1637.6z"/>
			
				<linearGradient id="SVGID_60_" gradientUnits="userSpaceOnUse" x1="-1954.2598" y1="1301.7252" x2="-1954.2598" y2="1278.672" gradientTransform="matrix(-0.9902 -0.14 -0.14 0.9902 341.0966 78.9274)">
				<stop  offset="0" style="stop-color:#FFC444"/>
				<stop  offset="0.9964" style="stop-color:#F36F56"/>
			</linearGradient>
			<path class="st58" d="M2097.5,1638.3l-6.9-1c3.2-3.8,2.6-16.1,2.6-16.1l7.3,1.6c0,0-0.8,3.4-2.3,8.3
				C2097.8,1632.9,2097.6,1635.6,2097.5,1638.3z"/>
			
				<linearGradient id="SVGID_61_" gradientUnits="userSpaceOnUse" x1="-1040.4104" y1="1288.4569" x2="-1027.1775" y2="1300.2277" gradientTransform="matrix(-0.9902 -0.14 -0.14 0.9902 1257.2977 208.4434)">
				<stop  offset="0" style="stop-color:#444B8C"/>
				<stop  offset="0.9964" style="stop-color:#26264F"/>
			</linearGradient>
			<path class="st59" d="M2098.1,1637.5c0,0-8.3-1.9-9.2-0.3c-0.9,1.6-1.6,6.1,3.7,5.9C2097.8,1643,2098.6,1638.9,2098.1,1637.5z"/>
			
				<linearGradient id="SVGID_62_" gradientUnits="userSpaceOnUse" x1="-938.3086" y1="1638.9146" x2="-925.0748" y2="1650.686" gradientTransform="matrix(-1 0 0 1 1263.5919 0)">
				<stop  offset="0" style="stop-color:#444B8C"/>
				<stop  offset="0.9964" style="stop-color:#26264F"/>
			</linearGradient>
			<path class="st60" d="M2199.1,1645.4c-0.7-2-7.6-2.9-10.5,0.3c-1.4,1.6-2.2,4.5-1,5.6c0.4,0.4-0.9,1.4,0.5,1.2
				C2192.5,1651.9,2199.7,1647.4,2199.1,1645.4z"/>
			
				<linearGradient id="SVGID_63_" gradientUnits="userSpaceOnUse" x1="-1850.8715" y1="1650.7095" x2="-1850.8715" y2="1627.6553" gradientTransform="matrix(-1 0 0 1 338.2817 0)">
				<stop  offset="0" style="stop-color:#FFC444"/>
				<stop  offset="0.9964" style="stop-color:#F36F56"/>
			</linearGradient>
			<path class="st61" d="M2192.2,1647.1h-7c2.6-4.3,0.3-16.3,0.3-16.3l7.5,0.6c0,0-0.4,3.4-1.1,8.5
				C2191.7,1641.7,2191.9,1644.4,2192.2,1647.1z"/>
			
				<linearGradient id="SVGID_64_" gradientUnits="userSpaceOnUse" x1="3332.3943" y1="1661.2815" x2="3246.1011" y2="1312.8735" gradientTransform="matrix(1 0 0 1 -1142.1553 0)">
				<stop  offset="0" style="stop-color:#444B8C"/>
				<stop  offset="0.9964" style="stop-color:#26264F"/>
			</linearGradient>
			<path class="st62" d="M2210.2,1384c3.2,10.6,7.8,27.8,10.8,49.4c8.5,61.5-9.5,63.4-6.2,131.6c1.1,21.7-18.8,71.9-20.6,73
				c-0.8,0.1-1.8,0.1-2.8,0.1c-1.7-0.1-4.2-0.3-7-1.2c-3.2-0.5-14.5-31.3-11.9-49.7c1.9-13,1.3-26.9,0.2-54.7
				c-0.2-4.5-11.7-87.7-11.7-87.7c-3.5,30.8-7.5,57-11,77.2c-11.2,65.2-47.8,104.6-49.7,105.3c-0.4,0.2-3.8,1.4-6.6-0.5
				c-1.2-0.8-1.7-1.9-1.7-1.9c-1-0.8,0.3-65.1,11.4-113.5c16.2-70.2,9.1-86.7,14.3-118.1C2122.3,1366.3,2210.2,1384,2210.2,1384z"/>
			
				<linearGradient id="SVGID_65_" gradientUnits="userSpaceOnUse" x1="-3582.1606" y1="1156.5063" x2="-3489.6399" y2="1369.4508" gradientTransform="matrix(-1 0 0 1 -1345.4875 0)">
				<stop  offset="3.597120e-003" style="stop-color:#E38DDD"/>
				<stop  offset="1" style="stop-color:#9571F6"/>
			</linearGradient>
			<path class="st63" d="M2144.9,1256.5c10.7-0.3,35.4-4.1,49,8.1c0.2,0.2-2.5,1.7-1.2,3.3c1.3,1.5,5.6,6.7,9.6,13.8
				c2.9,5.1,5.5,11.1,8.1,20c4.6,15.7,5.9,29,6.4,34.8c2.5,32.7,0,47.8-2.2,58c-9.7,5-34.7,13.9-64.5,9.5
				c-13.6-2-24.5-6.6-32.2-10.6c7.7-23.4,1.7-36-1.2-47.5c-4.1-16.5-4.1-15.2-7.5-28.3c-5.5-21.6-6.5-43.7-2.6-48.2
				C2116.8,1257.3,2135.3,1256.8,2144.9,1256.5z"/>
			
				<linearGradient id="SVGID_66_" gradientUnits="userSpaceOnUse" x1="-936.978" y1="1637.4193" x2="-923.7446" y2="1649.1906" gradientTransform="matrix(-1 0 0 1 1263.5919 0)">
				<stop  offset="0" style="stop-color:#444B8C"/>
				<stop  offset="0.9964" style="stop-color:#26264F"/>
			</linearGradient>
			<path class="st64" d="M2192.7,1646.2c0,0-8.5-0.7-9.1,1c-0.7,1.8-0.7,6.2,4.5,5.3C2193.2,1651.7,2193.4,1647.5,2192.7,1646.2z"/>
			<g>
				
					<linearGradient id="SVGID_67_" gradientUnits="userSpaceOnUse" x1="0.2353" y1="2252.5588" x2="68.7826" y2="2338.7998" gradientTransform="matrix(-0.9663 0.2576 0.2576 0.9663 1596.3029 -966.7023)">
					<stop  offset="0" style="stop-color:#FFC444"/>
					<stop  offset="0.9964" style="stop-color:#F36F56"/>
				</linearGradient>
				<path class="st65" d="M2167.5,1236.4c1.8-6.3-1.3-12.1-2-13.4c-2.8-5.3-3.6-6-4.9-6.9l-1.9-1.2c0,0-0.1,0-0.2-0.1
					c-1.2-0.4-5.3-0.6-6.2-0.4c-2.7,0.6-5.5,11.5-4.7,26.9c-0.1,0.6-0.2,1.2-0.3,1.8c-0.4,2.4-0.8,4.8-1,7.1
					c-0.2,2.2-1.7,4.1-3.8,4.9c-14.2,5.4-14.2,1.1-15.7,5.7c-0.8,2.5,15.3,6.6,23.3,5.7c17.9,0.1,32.4-1.8,30.8-4.6
					c-0.7-1.2-14.5-4.9-18.4-8.5c-3.6-3.3-3.3-6.7-3.6-9.1C2159.9,1243.9,2166.2,1241.1,2167.5,1236.4z"/>
				<path class="st66" d="M2164.2,1210.6c0,4.8-2.3,9.9-3.4,10.7c-0.1,0.1-1,0.8-1.7,1.9c-0.1,0.2-0.2,0.3-0.3,0.6
					c-1,3,3.7,6.5,2.8,7.9c-0.7,1-3.9-0.3-4.3,0.5c-0.4,0.8,2.3,2.4,1.9,3.4c-0.3,0.7-2,0.1-3,1.2c-0.5,0.5-0.4,1-0.9,2.7
					c-0.3,0.9-0.8,2-1.1,2.6c-1.6,2.8-6.3,3.8-7.2,2.7c-0.3-0.3,0-0.6-0.3-1.6c0,0-0.2-1-0.9-2.1c-1-1.6-3.3-2.8-5.7-4.4
					c-4.4-3.1-5.5-5.8-5.9-6.7c-0.1-0.3-0.2-0.6-0.3-0.7c-1.1-3.5-1.1-8.7,0.4-11.9c2.6-5.3,8.6-2.8,13.5-8.1
					c5.6-6.1,2.3-14.4,5.3-15.3C2156.6,1192.7,2164.2,1201.8,2164.2,1210.6z"/>
				
					<linearGradient id="SVGID_68_" gradientUnits="userSpaceOnUse" x1="4.8732" y1="2248.1965" x2="76.536" y2="2338.3574" gradientTransform="matrix(-0.9663 0.2576 0.2576 0.9663 1596.3029 -966.7023)">
					<stop  offset="0" style="stop-color:#FFC444"/>
					<stop  offset="0.9964" style="stop-color:#F36F56"/>
				</linearGradient>
				<path class="st67" d="M2159.9,1230.5c-1.2-1.6-3.2-0.1-3.2,2c0,2.1,2,4.2,4,3.8C2162.5,1235.9,2161.4,1232.7,2159.9,1230.5z"/>
			</g>
			<path class="st68" d="M2121.3,1378.6C2121.3,1378.6,2121.2,1378.6,2121.3,1378.6c-0.2,0-0.3-0.2-0.3-0.3
				c1.3-11.4-1.1-19.7-3.2-27.1c-0.5-1.8-1-3.5-1.4-5.2c-2.3-9.3-3.3-13-4.4-16.8c-0.7-2.5-1.4-5.1-2.5-9.4c0-0.2,0.1-0.3,0.2-0.4
				c0.2-0.1,0.3,0.1,0.4,0.2c1.1,4.3,1.8,6.9,2.5,9.4c1.1,3.8,2.1,7.4,4.4,16.8c0.4,1.7,0.9,3.4,1.4,5.2c2.1,7.4,4.5,15.7,3.2,27.3
				C2121.5,1378.5,2121.4,1378.6,2121.3,1378.6z"/>
			<path class="st66" d="M2158.9,1227.1l2.7,3.5c0,0,2.9,4.3,4.6,2c1.4-1.9,1.8-1.9,1.8-1.8c0,0,0,0,0,0c0,0-0.2-1-0.4-1.8
				c0.7,1,1.7,2.7,2.3,5c0.6,2.2,1.2,4.6,0,6.8c-0.1,0.1-1.4,2.5-4,3.1c0,0-1,0.2-5.2-0.5c0,0,4.6-3.4,4.7-4.2
				c0.2-2.2-2.8-3.3-5.1-7.8C2159.6,1229.7,2159.1,1228.1,2158.9,1227.1z"/>
		</g>
		<g>
			
				<linearGradient id="SVGID_69_" gradientUnits="userSpaceOnUse" x1="-1636.7896" y1="1037.2423" x2="-1460.7626" y2="1037.2423" gradientTransform="matrix(-1 0 0 1 -138.3425 0)">
				<stop  offset="0" style="stop-color:#444B8C"/>
				<stop  offset="0.9964" style="stop-color:#26264F"/>
			</linearGradient>
			<path class="st69" d="M1272.2,938.5c58.9,14.3,97.6,37.2,120.3,53.5c12.3,8.8,17.9,14.3,21,22.3c17.4,45.6-72.1,114.4-81.7,121.7
				c-4.2-9.7-8.3-19.4-12.5-29.2c9.3-50.8,24.7-66.8,37.6-71.5c3.6-1.3,9.7-2.7,9.5-4.5c-0.3-4-34.3,1.7-66.8-10.2
				c-32.4-11.9-65-41.9-59.2-61.7C1241.4,955.3,1245.9,944.8,1272.2,938.5z"/>
			
				<linearGradient id="SVGID_70_" gradientUnits="userSpaceOnUse" x1="4671.4946" y1="328.1066" x2="4679.1035" y2="465.0625" gradientTransform="matrix(0.9565 0.2918 -0.2918 0.9565 -3025.3306 -444.935)">
				<stop  offset="0" style="stop-color:#444B8C"/>
				<stop  offset="0.9964" style="stop-color:#26264F"/>
			</linearGradient>
			<path class="st70" d="M1329.3,1271.6c0,0-5.5,2-5.5,6.3c0,4.3,5.6,23.4,11.6,30.2c6.1,6.8,6.6-3.3,6.2-9.9
				c-0.4-6.5-2-21.1-3.5-23.9C1336.6,1271.4,1329.3,1271.6,1329.3,1271.6z"/>
			
				<linearGradient id="SVGID_71_" gradientUnits="userSpaceOnUse" x1="-1554.0457" y1="1043.8651" x2="-1378.0189" y2="1043.8651" gradientTransform="matrix(-1 0 0 1 -138.3425 0)">
				<stop  offset="0" style="stop-color:#444B8C"/>
				<stop  offset="0.9964" style="stop-color:#3E4177"/>
			</linearGradient>
			<path class="st71" d="M1346.8,1005.2c10.7-0.2,35.8-2.2,42.4,10.2c5.6,10.3-4.2,26-10.2,35.6c-16.3,26.2-32.1,28.9-43.3,45
				c-4.3,6.2-8.2,14.9-9.5,27.4c-2.4-5.5-4.7-11-7.1-16.5c9.3-50.8,24.7-66.8,37.6-71.5c3.6-1.3,9.7-2.7,9.5-4.5
				c-0.3-4-34.3,1.7-66.8-10.2c-29.6-10.8-59.1-36.7-59.8-56.2C1286.6,998,1321.8,1005.6,1346.8,1005.2z"/>
			
				<linearGradient id="SVGID_72_" gradientUnits="userSpaceOnUse" x1="1490.6256" y1="1247.0923" x2="1496.2996" y2="1264.4479" gradientTransform="matrix(1 0 0 1 -165.3938 0)">
				<stop  offset="0" style="stop-color:#311944"/>
				<stop  offset="1" style="stop-color:#A03976"/>
			</linearGradient>
			<path class="st72" d="M1326.1,1253.1c0.3,6.7,0.9,12.3,1.4,16.4c1.1,9.2,2.2,12.8,3.6,16.1c1.2,2.9,4.3,9.2,5.8,8.7
				c1.5-0.4,0-7.4-1.2-26.8c-0.2-2.8-0.7-11.8-0.7-11.8L1326.1,1253.1z"/>
			
				<linearGradient id="SVGID_73_" gradientUnits="userSpaceOnUse" x1="-1542.7974" y1="927.949" x2="-1384.9675" y2="1119.7206" gradientTransform="matrix(-1 0 0 1 -138.3425 0)">
				<stop  offset="0" style="stop-color:#444B8C"/>
				<stop  offset="0.9964" style="stop-color:#26264F"/>
			</linearGradient>
			<path class="st73" d="M1238.2,942.4c33.9,20.4,55.9,43.7,68.7,59.4c15.1,18.5,38.1,46.7,46.4,88.8c4.4,22.4,2.3,42.5-2.3,81.8
				c-4.5,39-11,70.8-16.1,92.5c-2.6,1-5.2,2.1-7.8,3.1c-7-12.8-16.1-33.2-19.4-59.1c-5.4-42.5,10.5-56,2.9-86.2
				c-6.6-26.1-25.8-42.1-64.1-74.1c-31.5-26.3-60.5-41.9-71.3-74.7c-1.8-5.6-3.4-12.4-0.4-18.7
				C1181.4,941.6,1206,936.9,1238.2,942.4z"/>
			<g>
				
					<linearGradient id="SVGID_74_" gradientUnits="userSpaceOnUse" x1="2044.0775" y1="1133.6862" x2="2011.8577" y2="1074.7699" gradientTransform="matrix(0.9202 -0.3915 0.3915 0.9202 -894.2715 392.9932)">
					<stop  offset="0" style="stop-color:#444B8C"/>
					<stop  offset="0.9964" style="stop-color:#26264F"/>
				</linearGradient>
				<path class="st74" d="M1388.4,594.1l16.6-7.1c2.5-1.1,5.4,0.3,6.1,2.9l13,42.6c0.7,2.2-0.4,4.6-2.6,5.5l-16.1,6.9
					c-2.5,1.1-5.3-0.3-6.1-2.8l-13.5-42.4C1385.1,597.5,1386.2,595.1,1388.4,594.1z"/>
				<path class="st75" d="M1404.6,621.7c-2.3-8.1,2.2-15.2-2.4-23.5c-1.3-2.4-3.1-4.4-5.1-6l-6.8,2.9c-2,0.9-3.1,3.1-2.4,5.2
					l12.7,39.6c0.8,2.4,3.4,3.6,5.7,2.6l13.2-5.6C1409.8,632,1406,626.5,1404.6,621.7z"/>
			</g>
			
				<linearGradient id="SVGID_75_" gradientUnits="userSpaceOnUse" x1="2129.0466" y1="853.0542" x2="2107.5286" y2="814.9838" gradientTransform="matrix(0.9891 -0.1469 0.1469 0.9891 -784.0038 143.2754)">
				<stop  offset="0" style="stop-color:#311944"/>
				<stop  offset="1" style="stop-color:#A03976"/>
			</linearGradient>
			<path class="st76" d="M1424.5,645.5c-2-4.9-2.3-7.5-2.2-8.9c0-0.2,0.1-1,0.1-2c0.1-1.7,0.1-3.1,0.1-4c-0.1-4.7-0.1-7-0.6-9.3
				c-0.5-2.5-1.2-6.2-2.5-6.3c-1.8-0.2-4.4,4.9-5.5,9.7c-1.5,6.2,0.4,8.6-1.4,12.9c-1.5,3.6-4.4,5.9-7,7.4c1.1,0.8,2,1.1,2.7,1.3
				c1.4,0.3,2.2-0.1,4.3,0.2c0.8,0.1,1.3,0.3,1.6,0.3C1415.5,647,1418.4,647,1424.5,645.5z"/>
			
				<linearGradient id="SVGID_76_" gradientUnits="userSpaceOnUse" x1="1518.9774" y1="678.5806" x2="1246.6415" y2="1127.1344" gradientTransform="matrix(1 0 0 1 -165.3938 0)">
				<stop  offset="0" style="stop-color:#FFC444"/>
				<stop  offset="0.9964" style="stop-color:#F36F56"/>
			</linearGradient>
			<path class="st77" d="M1425.2,643.6c-4.7,0-8.8,3.4-13.5,3.4c-4.3,30.8-12,41.3-21.7,51c-31.3,31.3-72.6,18.8-138.1,45.6
				c-26,10.6-45.7,23.3-58,32.2c13.1,15.9,39.6,42.3,78.8,48.5c69.3,10.9,136.8-48.2,155.2-111.7
				C1436.6,682.4,1428.5,658.7,1425.2,643.6z"/>
			
				<linearGradient id="SVGID_77_" gradientUnits="userSpaceOnUse" x1="1387.452" y1="764.4171" x2="1595.5359" y2="764.4171" gradientTransform="matrix(1 0 0 1 -165.3938 0)">
				<stop  offset="0" style="stop-color:#FFC444"/>
				<stop  offset="0.9964" style="stop-color:#F36F56"/>
			</linearGradient>
			<path class="st78" d="M1329.8,788.6c4.5-4.7,5.2-9.1,15.4-23.2c2.3-3.2,5.3-6.7,9.6-10.7c26.2-24.7,47.9-19.2,66.1-38.2
				c3.1-3.3,6.4-7.5,9.2-13.1c-0.6,3-1.4,6-2.3,9c-18.4,63.5-85.9,122.6-155.2,111.7c-20.3-3.2-37.2-11.9-50.7-21.7
				c8.2-4,20.7-8.9,36.3-10.9C1294.1,787.1,1317.2,801.8,1329.8,788.6z"/>
			
				<linearGradient id="SVGID_78_" gradientUnits="userSpaceOnUse" x1="922.6157" y1="506.5574" x2="686.7073" y2="704.1071" gradientTransform="matrix(-0.9151 -0.4033 -0.4033 0.9151 1988.3757 424.6314)">
				<stop  offset="0" style="stop-color:#444B8C"/>
				<stop  offset="0.9964" style="stop-color:#26264F"/>
			</linearGradient>
			<path class="st79" d="M1156,732.8c10.1,1.5,25.2,7.8,44.1,1.8c5.7-1.8,25.9-8.1,30.7-26.3c4.2-16.1-7.2-29.9-8.7-31.6
				c-8.2-9.6-19-12.3-31-15.1c-15.6-3.6-22.1-1.5-33.4-2.6c-28.1-2.8-31.3-20.5-57.4-29.1c-33.4-11-45.5,12.2-73.3,2.3
				c-31.3-11.1-25.6-43.7-54.3-60.5c-39.8-23.3-121.4-2.1-140.2,51.1c-10.9,30.7-1.5,74.3,23.5,95.8c14.5,12.5,33.5,17.5,34.5,30.5
				c0.7,9.2-9.9,12.1-14.3,26c-5.7,17.9,4.7,36,6.4,38.9c15.6,27.1,69.9,37.1,114.5,24.2C1077.6,814.9,1101.3,724.4,1156,732.8z"/>
			
				<linearGradient id="SVGID_79_" gradientUnits="userSpaceOnUse" x1="1505.0048" y1="670.0972" x2="1232.6696" y2="1118.6499" gradientTransform="matrix(1 0 0 1 -165.3938 0)">
				<stop  offset="0" style="stop-color:#FFC444"/>
				<stop  offset="0.9964" style="stop-color:#F36F56"/>
			</linearGradient>
			<path class="st80" d="M1146.8,739.7c22.4-3.4,48.4-6.3,77.2-7.5c62-2.6,60.4,0.1,71.9-2.6c10.6-2.5-5.8,29.7-12.7,59
				c-7.1,30-3,54.9-1.4,63.7c2.5,14.3,6.8,25.3,15.4,47.5c15,38.5,23,46.7,18.2,57.8c-7.1,16.2-33.2,19.4-37.8,19.8
				c-23.3,2.3-30.2-10.5-50-9.8c-23,0.9-25.7,18.6-55.5,34.7c-35.1,19-83.4,22.5-109.3,1c-10-8.3-17.5-20.8-14.4-25.5
				c4.2-6.4,24.1,7.3,41.7-1.9c11.7-6.1,9.2-15.4,22.5-26.8c16.1-13.7,27.7-7.1,38.7-16.1c17.1-14,8.2-46,1.8-99.9
				C1150.4,810.9,1147.4,779,1146.8,739.7z"/>
			
				<linearGradient id="SVGID_80_" gradientUnits="userSpaceOnUse" x1="1368.3323" y1="587.1177" x2="1095.9969" y2="1035.6705" gradientTransform="matrix(1 0 0 1 -165.3938 0)">
				<stop  offset="0" style="stop-color:#FFC444"/>
				<stop  offset="0.9964" style="stop-color:#F36F56"/>
			</linearGradient>
			<path class="st81" d="M1146.8,739.7c-32.3,6.4-39,42.1-72,53.8c-20,7.1-51.6,6.1-102.1-30.2c-5.8,3.8-11.7,7.6-17.5,11.5
				c12.1,37.5,33.2,56.5,43.3,64.3c57.8,44.5,152.6,28.8,197.4-23.4c14.1-16.4,20.8-33.6,24.2-44.7
				C1201,753.2,1174,734.3,1146.8,739.7z"/>
			
				<linearGradient id="SVGID_81_" gradientUnits="userSpaceOnUse" x1="519.6935" y1="883.7507" x2="485.8891" y2="761.48" gradientTransform="matrix(-0.9996 2.870000e-002 2.870000e-002 0.9996 1693.5304 -96.279)">
				<stop  offset="0" style="stop-color:#311944"/>
				<stop  offset="1" style="stop-color:#A03976"/>
			</linearGradient>
			<path class="st82" d="M1209.7,701.6c0,0-2.1,22.3-10.2,27.6c-8.1,5.3-21.3,5.5-22.8,7.3c-1.4,1.8,42.5,16.9,68,3.1l10.6-7.9
				c-8.5,0.3-19.5,0-23.9-2.4c-3-1.6-7.8-4.7-12.4-10.8l-0.3-12.3L1209.7,701.6z"/>
			
				<linearGradient id="SVGID_82_" gradientUnits="userSpaceOnUse" x1="605.7626" y1="695.885" x2="498.5957" y2="785.0707" gradientTransform="matrix(-0.9996 2.870000e-002 2.870000e-002 0.9996 1693.5304 -96.279)">
				<stop  offset="0" style="stop-color:#311944"/>
				<stop  offset="1" style="stop-color:#A03976"/>
			</linearGradient>
			<path class="st83" d="M1208.7,709.5c0,0,5.6,7.2,13.9,3.9c7.4-3,2.4-22.2-3.6-24.3c-2-0.7-5.6-0.2-8,1.3
				c-1.7,1.1-6.1,6.9-3.3,13.2c-1.9-0.5-3.6,0.1-4,1c-0.5,1.2,1.2,2.8,1.5,3.1C1206.5,709.1,1208,709.4,1208.7,709.5z"/>
			
				<linearGradient id="SVGID_83_" gradientUnits="userSpaceOnUse" x1="861.2625" y1="667.8039" x2="805.1586" y2="737.5742" gradientTransform="matrix(-0.5024 0.8646 -0.8646 -0.5024 2000.1414 414.2729)">
				<stop  offset="0" style="stop-color:#311944"/>
				<stop  offset="1" style="stop-color:#A03976"/>
			</linearGradient>
			<path class="st84" d="M967.9,766.5l-4-5.6c0,0,11.9-28-1.6-30.2c-13.5-2.2-8.8,4.6-6.8,7.9c2,3.3,1.3,15.1-0.4,18.9
				c-1.7,3.8,3.9,14.9,3.9,14.9L967.9,766.5z"/>
			
				<linearGradient id="SVGID_84_" gradientUnits="userSpaceOnUse" x1="1167.3822" y1="899.9299" x2="1355.281" y2="899.9299" gradientTransform="matrix(1 0 0 1 -165.3938 0)">
				<stop  offset="0" style="stop-color:#FFC444"/>
				<stop  offset="0.9964" style="stop-color:#F36F56"/>
			</linearGradient>
			<path class="st85" d="M1115.2,993.6c7.3-6.7,0.1-16.7,8-26.8c7.2-9.3,17.1-5.9,31.5-12.4c17.3-7.8,29.1-24.6,33.6-38.3
				c3.2-9.8,2-15.7-9.2-61.9c-10.6-44-13.4-54.7-19.3-55.3c-10.8-1.1-15.3,33.1-35.7,36.1c-11.5,1.7-14.6-8.5-30-11.8
				c-26-5.6-40.4,18.8-66.9,21.9c-6.8,0.8-15.2,0.3-25.3-3.6c43.4,31,105.8,29.9,152.9,6c6.1,45.4,12,73.1-3.6,85.8
				c-11,9-22.6,2.3-38.7,16.1c-13.4,11.4-10.9,20.7-22.5,26.8c-17.6,9.2-37.5-4.5-41.7,1.9c-2.8,4.3,3.1,14.9,11.7,23
				c4-2.4,8.5-4.3,13.5-5.5C1092.8,991.1,1106.6,1001.6,1115.2,993.6z"/>
		</g>
	</g>
</g>
<g id="Text">
</g>
</svg>
